<?xml version="1.0" encoding="UTF-8" standalone="no"?>
<!-- Created with Inkscape (http://www.inkscape.org/) -->

<svg
   xmlns:dc="http://purl.org/dc/elements/1.1/"
   xmlns:cc="http://creativecommons.org/ns#"
   xmlns:rdf="http://www.w3.org/1999/02/22-rdf-syntax-ns#"
   xmlns:svg="http://www.w3.org/2000/svg"
   xmlns="http://www.w3.org/2000/svg"
   xmlns:sodipodi="http://sodipodi.sourceforge.net/DTD/sodipodi-0.dtd"
   xmlns:inkscape="http://www.inkscape.org/namespaces/inkscape"
   width="108.77233mm"
   height="108.77233mm"
   viewBox="0 0 108.77233 108.77233"
   version="1.1"
   id="svg8"
   inkscape:version="0.92.4 (unknown)"
   sodipodi:docname="castro_logo4.svg">
  <defs
     id="defs2" />
  <sodipodi:namedview
     id="base"
     pagecolor="#ffffff"
     bordercolor="#666666"
     borderopacity="1.0"
     inkscape:pageopacity="0.0"
     inkscape:pageshadow="2"
     inkscape:zoom="0.98994949"
     inkscape:cx="-23.156338"
     inkscape:cy="165.68063"
     inkscape:document-units="mm"
     inkscape:current-layer="layer1"
     showgrid="false"
     inkscape:window-width="1920"
     inkscape:window-height="983"
     inkscape:window-x="0"
     inkscape:window-y="27"
     inkscape:window-maximized="1" />
  <metadata
     id="metadata5">
    <rdf:RDF>
      <cc:Work
         rdf:about="">
        <dc:format>image/svg+xml</dc:format>
        <dc:type
           rdf:resource="http://purl.org/dc/dcmitype/StillImage" />
        <dc:title></dc:title>
      </cc:Work>
    </rdf:RDF>
  </metadata>
  <g
     inkscape:label="Layer 1"
     inkscape:groupmode="layer"
     id="layer1"
     transform="translate(-37.765515,-86.921147)">
    <circle
       style="opacity:0.8;fill:#ffffff;fill-opacity:1;stroke:#202020;stroke-width:0.91460216;stroke-miterlimit:4;stroke-dasharray:none;stroke-opacity:0.50196078"
       id="path121"
       cx="92.15168"
       cy="141.30731"
       r="53.928864" />
    <g
       id="g96">
      <path
         style="fill:#f9fbcf;stroke-width:0.25400001"
         d="m 109.42295,177.76023 c -0.20048,-0.0668 -0.98031,-0.54876 -1.73296,-1.07096 -1.15691,-0.80268 -1.51783,-0.92942 -2.33474,-0.81985 -1.37875,0.18493 -3.46608,-0.85601 -4.67509,-2.33145 -0.53932,-0.65816 -1.238415,-1.21618 -1.62751,-1.29906 -1.031593,-0.21975 -1.829458,-0.58523 -3.16213,-1.44848 -1.010689,-0.65468 -1.271879,-0.99203 -1.585361,-2.04763 -0.206421,-0.69511 -0.604876,-1.6529 -0.885454,-2.12845 -0.280576,-0.47554 -0.510139,-1.06252 -0.510139,-1.30439 0,-0.24188 -0.2286,-0.88816 -0.508,-1.43619 -0.2794,-0.54803 -0.508,-1.24276 -0.508,-1.54384 0,-0.30108 -0.249883,-1.14871 -0.555297,-1.88361 -0.547401,-1.31719 -0.548303,-1.34138 -0.0635,-1.70058 0.486321,-0.36033 0.486308,-0.36845 -0.0013,-0.72968 -0.271155,-0.20091 -0.617388,-0.36529 -0.769387,-0.36529 -0.418216,0 -2.119604,-1.73746 -2.318202,-2.36735 -0.09601,-0.30451 -0.929838,-1.4898 -1.852953,-2.63398 -2.022464,-2.5068 -3.945244,-5.10598 -4.985253,-6.73899 -1.94298,-3.05085 -5.383314,-6.20098 -7.296726,-6.68121 -0.371396,-0.0932 -1.459451,-0.64423 -2.4179,-1.22448 -0.958446,-0.58025 -2.306904,-1.34074 -2.996572,-1.68999 -3.689549,-1.8684 -10.092083,-10.64422 -10.772839,-14.7661 -0.146873,-0.8893 -0.377053,-2.0741 -0.511513,-2.6329 -0.134457,-0.5588 -0.247195,-2.23883 -0.250528,-3.73339 -0.0067,-3.00347 0.690992,-5.85359 1.852994,-7.56961 0.331091,-0.48895 0.685909,-1.2319 0.788487,-1.651 0.19319,-0.78931 3.361741,-4.3063 4.422618,-4.90896 0.856165,-0.48637 6.61817,-0.69747 8.776822,-0.32156 2.135114,0.37181 4.655236,1.34181 6.505019,2.50379 0.76835,0.48265 2.1971,1.37304 3.175,1.97862 5.25207,3.25247 6.98849,5.01139 8.12372,8.22898 0.206025,0.58393 0.596242,1.37298 0.867151,1.75343 1.734663,2.43611 3.092453,6.81606 3.712174,11.9747 0.176218,1.46685 0.447645,2.98876 0.603174,3.38203 0.15553,0.39327 0.282781,1.3172 0.282781,2.05317 0,0.73597 0.08307,1.4212 0.184592,1.52272 0.101524,0.10153 0.481094,-0.1787 0.843488,-0.62272 0.652338,-0.79928 0.666809,-0.80323 1.453795,-0.39626 0.437195,0.22608 1.034631,0.41106 1.327639,0.41106 0.29301,0 0.81224,0.30158 1.15385,0.67018 0.61644,0.66515 0.62922,0.66713 1.70237,0.26402 1.21388,-0.45598 2.80862,-0.54952 6.16127,-0.3614 2.62222,0.14713 4.17213,0.68059 5.06688,1.74393 0.53013,0.63002 4.71057,3.01727 5.28371,3.01727 0.41244,0 5.73638,2.37288 7.42941,3.31128 1.90265,1.05459 4.47458,3.18003 5.87192,4.85254 1.31677,1.57607 3.00855,4.89911 3.92579,7.71118 0.67277,2.06257 0.84916,3.06584 0.9384,5.33755 l 0.10991,2.79756 -1.16468,3.04444 c -1.37762,3.60105 -1.77604,4.03782 -3.47066,3.80475 -1.30321,-0.17923 -1.70817,0.0595 -2.41313,1.42276 -0.23214,0.44891 -0.58465,0.73794 -0.90002,0.73794 -0.28514,0 -0.89307,0.28575 -1.35096,0.635 -0.45789,0.34925 -1.05034,0.63751 -1.31655,0.64058 -0.26621,0.003 -0.98228,0.23166 -1.59126,0.508 -0.60898,0.27633 -1.55741,0.50242 -2.10763,0.50242 -0.71718,0 -1.15875,0.16715 -1.55976,0.59042 -0.76893,0.81162 -1.29844,0.95943 -1.90788,0.53255 -0.55113,-0.38602 -2.01716,-0.47249 -4.48648,-0.2646 -1.42704,0.12013 -1.57773,0.19772 -2.54127,1.30839 -0.78221,0.90166 -1.26563,1.22482 -2.04556,1.36744 -0.56172,0.10272 -1.18532,0.13208 -1.3858,0.0653 z m 0.25062,-2.21497 c 0,-0.34262 -0.94965,-0.77351 -1.18534,-0.53783 -0.0721,0.0721 -0.0595,0.35653 0.028,0.63211 0.17877,0.56324 1.15736,0.48353 1.15736,-0.0943 z"
         id="path126"
         inkscape:connector-curvature="0" />
      <path
         style="fill:#ecf6b1;stroke-width:0.25400001"
         d="m 102.79504,174.22427 c -0.45913,-0.38418 -1.4249,-1.24143 -2.14617,-1.905 -0.721261,-0.66358 -1.500371,-1.2065 -1.731345,-1.2065 -0.230978,0 -0.419959,-0.11198 -0.419959,-0.24884 0,-0.13686 -0.465846,-0.48649 -1.035213,-0.77696 -0.66187,-0.33766 -1.157881,-0.82171 -1.375349,-1.34219 -0.187073,-0.44773 -0.731337,-1.38397 -1.209474,-2.08053 -1.300729,-1.89494 -1.503479,-2.34288 -2.125284,-4.69548 -0.523557,-1.98089 -0.53657,-2.18522 -0.157724,-2.47678 0.758205,-0.58353 0.11113,-1.6172 -1.494117,-2.38678 -1.084018,-0.5197 -1.575999,-0.94871 -2.086089,-1.81911 -0.367132,-0.62647 -1.193241,-1.75087 -1.835795,-2.49868 -0.642557,-0.74781 -1.343912,-1.70255 -1.558567,-2.12165 -0.368874,-0.7202 -0.886663,-1.45257 -3.591568,-5.08 -2.437155,-3.26836 -5.354541,-5.84451 -7.724051,-6.8206 -0.523727,-0.21574 -2.37747,-1.20647 -4.119425,-2.20161 -2.689172,-1.53627 -3.454677,-2.12287 -5.071956,-3.88657 -2.494026,-2.71984 -2.883921,-3.29105 -4.711916,-6.90322 -1.253175,-2.47631 -1.636362,-3.53801 -2.04298,-5.66051 -0.588097,-3.06978 -0.640631,-5.79546 -0.145631,-7.55564 1.551485,-5.51693 4.966238,-9.42824 8.983436,-10.28978 1.58794,-0.34055 8.088607,0.25845 9.583532,0.88307 0.523715,0.21882 1.154026,0.39786 1.400688,0.39786 0.246665,0 1.00423,0.37739 1.683482,0.83865 0.679249,0.46126 1.920801,1.21847 2.759001,1.68269 3.281408,1.81734 5.677642,4.50687 8.229229,9.2365 2.313922,4.28909 3.650196,8.49637 3.96986,12.49916 0.08925,1.1176 0.279194,2.43205 0.422095,2.921 0.142903,0.48895 0.333395,1.74625 0.423319,2.794 0.157665,1.83706 0.186144,1.90323 0.798497,1.85525 0.640631,-0.0502 3.039148,0.87178 3.334367,1.2817 0.08765,0.12171 0.102898,0.43723 0.03388,0.70117 -0.142212,0.54382 0.316687,0.66416 0.519297,0.13618 0.13831,-0.36043 1.29591,-0.53303 6.02924,-0.89897 1.47278,-0.11387 2.92259,-0.33805 3.2218,-0.49818 0.29921,-0.16013 1.17766,-0.29115 1.9521,-0.29115 1.37645,0 1.45395,0.0396 3.4495,1.76117 1.24253,1.07196 2.56178,1.95771 3.37112,2.26338 1.13826,0.42991 4.76026,2.64317 8.11729,4.96015 1.12124,0.77386 2.48341,2.5706 2.48341,3.27568 0,0.27509 0.38689,1.14377 0.85977,1.93039 1.55904,2.59347 1.85976,3.40933 2.07191,5.62123 0.4048,4.22034 0.29102,5.54946 -0.64983,7.59065 -0.94846,2.05771 -1.95476,3.06947 -4.29185,4.31513 -1.79773,0.95818 -1.88857,1.06596 -2.39886,2.84645 -0.5014,1.74947 -1.06286,2.07593 -3.71914,2.16247 -2.46388,0.0803 -6.16664,0.50907 -7.62,0.88242 -0.62865,0.1615 -2.22885,0.37844 -3.556,0.4821 -1.32715,0.10367 -2.8702,0.37163 -3.429,0.59548 -1.52474,0.61079 -2.48767,0.53565 -3.44953,-0.2692 z"
         id="path124"
         inkscape:connector-curvature="0" />
      <path
         style="fill:#d9eea3;stroke-width:0.25400001"
         d="m 106.24457,172.06604 c -1.33629,-0.70172 -1.74684,-0.79474 -3.33313,-0.75523 l -1.80912,0.0451 -1.915479,-1.63438 c -2.308337,-1.96958 -2.428385,-2.14125 -1.812354,-2.59171 0.44909,-0.32838 0.380708,-0.43704 -1.111555,-1.76631 -0.874547,-0.77902 -1.742948,-1.71865 -1.92978,-2.08806 -0.593067,-1.17263 -0.700209,-2.42118 -0.280048,-3.26342 0.505631,-1.01356 0.367343,-1.29657 -1.153759,-2.36123 -2.735295,-1.91451 -2.750165,-1.9424 -1.209169,-2.26808 l 0.83839,-0.17719 -1.91863,-2.01586 c -1.055245,-1.10873 -2.75325,-2.98742 -3.773342,-4.17487 -5.063838,-5.89462 -8.560146,-8.94611 -12.177345,-10.62807 -6.791383,-3.15792 -11.118631,-7.31187 -13.668309,-13.12093 -4.043443,-9.21239 -0.874031,-19.15783 6.85318,-21.5049 1.468429,-0.44602 2.101108,-0.50321 3.927528,-0.35501 3.426071,0.27799 4.842441,0.61209 7.294918,1.7208 5.494508,2.48393 9.125054,6.06011 12.065224,11.88455 1.543126,3.05692 2.817944,8.25523 3.176691,12.95356 0.09067,1.18745 0.319928,2.90195 0.509468,3.81 0.189538,0.90805 0.437764,2.3368 0.551615,3.175 0.197685,1.4554 0.237256,1.52048 0.87916,1.44577 0.516618,-0.0601 0.936264,0.18968 1.813504,1.0795 1.255997,1.27402 1.827349,1.40485 3.414702,0.78191 2.13494,-0.83784 4.27226,-1.14069 8.0768,-1.14443 l 3.81717,-0.004 1.77083,0.89159 c 2.10377,1.05923 3.07026,1.74411 4.79887,3.40061 0.70948,0.67989 2.57328,2.40497 4.14177,3.83351 3.0579,2.78506 4.07564,4.09314 4.901,6.29912 l 0.52281,1.39731 -0.74234,0.72576 c -0.66879,0.65387 -0.76043,0.94584 -0.9251,2.94743 -0.23274,2.82911 -0.54341,3.54733 -2.36828,5.47519 -0.81866,0.86486 -1.66228,1.83134 -1.87472,2.14772 -0.54606,0.81326 -3.39351,3.05303 -4.43411,3.48782 -0.48531,0.20278 -1.20133,0.29938 -1.61128,0.2174 -0.82749,-0.1655 -2.04738,0.47021 -3.2935,1.71633 -0.63155,0.63155 -0.92985,0.73943 -1.96542,0.71076 -0.67147,-0.0186 -1.54263,0.0934 -1.9359,0.24883 -1.20353,0.4757 -2.49776,0.30503 -4.11096,-0.54211 z"
         id="path122"
         inkscape:connector-curvature="0" />
      <path
         style="fill:#c9e89a;stroke-width:0.25400001"
         d="m 109.29257,171.19287 c -1.34794,-0.17297 -4.25436,-0.85814 -4.73792,-1.11693 -0.25799,-0.13807 -0.46908,-0.46888 -0.46908,-0.73512 0,-0.72879 -0.4041,-0.84365 -1.79454,-0.51008 -1.62241,0.3892 -2.407272,0.18671 -2.716827,-0.70094 -0.134269,-0.38502 -1.113343,-1.59784 -2.175715,-2.69516 -2.157542,-2.22851 -2.446932,-2.77524 -1.829862,-3.4571 0.390319,-0.4313 0.383228,-0.52927 -0.104107,-1.43853 -0.287625,-0.53665 -0.524368,-1.20601 -0.526098,-1.48748 -0.0018,-0.30339 -0.363829,-0.74541 -0.889,-1.0856 -0.993932,-0.64384 -1.142728,-1.07716 -0.369884,-1.07716 0.840259,0 0.819899,-0.54047 -0.111184,-2.95134 -0.937656,-2.4279 -1.778876,-3.52255 -4.087787,-5.31926 -0.6985,-0.54355 -2.5273,-2.0838 -4.064,-3.42278 -4.28751,-3.73585 -5.71104,-4.72761 -10.001842,-6.96818 -4.929017,-2.57383 -6.613329,-3.65302 -8.493237,-5.44186 -4.105229,-3.90639 -6.777921,-9.86807 -6.777921,-15.11879 0,-6.66069 4.179946,-12.19857 9.906,-13.12413 5.085331,-0.82199 11.682006,1.55539 15.832508,5.70589 2.959098,2.9591 5.552585,7.64102 6.630317,11.96945 0.798157,3.20558 1.413175,7.74748 1.413175,10.43628 0,1.39436 0.141211,2.39719 0.430632,3.0582 0.310885,0.71002 0.477705,2.07831 0.599912,4.92052 0.172527,4.01252 0.334114,4.92367 0.842251,4.7492 0.178733,-0.0614 0.253335,-0.59296 0.198672,-1.41565 -0.149276,-2.24657 1.281864,-3.52526 2.001385,-1.78818 0.55166,1.33182 2.474542,1.7048 3.186572,0.6181 0.66199,-1.01031 1.93271,-1.65547 3.26067,-1.65547 0.65402,0 1.53907,-0.18096 1.96678,-0.40214 1.88288,-0.97367 7.89214,0.46896 9.99213,2.39879 0.4191,0.38514 1.2192,1.02817 1.778,1.42895 0.5588,0.40078 1.49406,1.16082 2.07835,1.68897 0.5843,0.52816 1.44986,1.12219 1.92347,1.32008 1.06607,0.44543 2.72918,1.87805 2.72918,2.35095 0,0.19303 0.37147,1.05963 0.8255,1.92576 0.80885,1.54302 0.8255,1.64171 0.8255,4.89321 0,3.18408 -0.0228,3.32844 -0.5637,3.5658 -0.37882,0.16624 -0.74879,0.77168 -1.12806,1.84599 -0.4704,1.33246 -0.87505,1.89693 -2.43033,3.39022 -1.6448,1.57923 -1.95108,1.7729 -2.58397,1.6339 -0.5384,-0.11826 -0.90134,-0.006 -1.45097,0.4495 -0.94919,0.78632 -2.97315,1.95802 -3.38223,1.95802 -0.17524,0 -0.60924,0.2286 -0.96444,0.508 -0.35519,0.2794 -0.95934,0.508 -1.34254,0.508 -0.3832,0 -1.10706,0.17145 -1.60859,0.381 -0.50152,0.20955 -0.9441,0.36387 -0.98352,0.34294 -0.0394,-0.0209 -0.41455,-0.0821 -0.83365,-0.13584 z"
         id="path120"
         inkscape:connector-curvature="0" />
      <path
         style="fill:#bae193;stroke-width:0.25400001"
         d="m 106.86594,169.92379 c -0.76086,-0.37453 -1.64909,-0.96113 -1.97385,-1.30355 -0.53746,-0.5667 -0.73006,-0.60993 -2.14556,-0.48158 -1.38197,0.12532 -1.64142,0.0723 -2.33053,-0.47593 -1.223419,-0.97337 -1.918434,-1.71977 -1.918434,-2.06028 0,-0.1727 -0.327685,-0.68946 -0.72819,-1.14834 -0.400507,-0.45889 -0.913702,-1.47661 -1.140437,-2.26161 -0.226733,-0.785 -0.571073,-1.55909 -0.765198,-1.7202 -0.194125,-0.16111 -0.425237,-0.65434 -0.51358,-1.09606 -0.08835,-0.44173 -0.338527,-0.99972 -0.555958,-1.23997 -0.32559,-0.35978 -0.339286,-0.52658 -0.07764,-0.94555 0.268584,-0.43007 0.173454,-0.95412 -0.615351,-3.38984 -1.15604,-3.56967 -1.441285,-5.37201 -1.443733,-9.12236 -0.0022,-3.35964 0.674766,-6.07775 1.513695,-6.07775 0.100876,0 0.253416,1.68592 0.338981,3.7465 0.158163,3.80888 0.471599,5.3975 1.06494,5.3975 0.438981,0 1.747973,-1.51207 2.188922,-2.52851 0.328704,-0.75771 0.41753,-0.80246 1.313583,-0.66171 1.00593,0.158 1.71377,-0.09 2.62715,-0.92039 0.30318,-0.27564 1.19475,-0.59471 2.032,-0.72721 0.82049,-0.12984 2.00616,-0.34677 2.63481,-0.48207 1.6664,-0.35863 3.50894,-0.31541 4.92986,0.11564 0.68578,0.20803 1.65982,0.37825 2.16454,0.37825 0.73484,0 1.16755,0.22942 2.17193,1.15153 0.68985,0.63335 1.5446,1.2219 1.89947,1.3079 1.35324,0.32795 3.8202,2.61079 3.8202,3.5351 0,0.34791 0.29675,0.92931 0.65946,1.29202 0.3627,0.3627 0.86143,1.13065 1.10829,1.70655 0.24686,0.5759 0.63073,1.19805 0.85304,1.38255 0.88438,0.73397 1.7509,2.63924 1.88801,4.15128 0.12724,1.40326 0.0865,1.56637 -0.53454,2.14227 -0.36974,0.34284 -0.67338,0.81876 -0.67475,1.05758 -0.004,0.63962 -1.21518,3.13591 -1.85583,3.82385 -0.67867,0.72877 -1.75512,1.30937 -2.42761,1.30937 -0.27564,0 -1.02526,0.40005 -1.66582,0.889 -0.98766,0.7539 -1.36696,0.88924 -2.49595,0.8906 -1.20496,0.002 -1.37138,0.0721 -1.75362,0.74394 -0.25372,0.44596 -0.76075,0.8426 -1.27,0.99347 -0.46623,0.13812 -1.50205,0.48915 -2.30184,0.78006 -1.88441,0.68543 -2.35536,0.66761 -4.02047,-0.15205 z M 87.067566,144.37302 c -0.90805,-0.48247 -2.794,-1.64408 -4.191,-2.58136 -1.397,-0.93728 -4.246354,-2.5599 -6.3319,-3.60583 -5.45053,-2.73351 -7.072089,-3.73751 -9.050099,-5.60347 -2.755905,-2.59978 -5.047795,-6.31748 -5.946244,-9.64546 -0.639328,-2.36816 -0.772058,-6.24775 -0.284406,-8.31296 0.876523,-3.7121 3.180108,-6.7287 6.317663,-8.27315 1.500955,-0.73883 2.04149,-0.86348 4.194183,-0.96714 3.396526,-0.16355 5.845408,0.3639 9.075956,1.95481 3.149757,1.55112 5.303273,3.45782 7.456993,6.60234 2.651247,3.87092 3.794013,6.97571 4.476963,12.16348 0.503918,3.82783 0.47419,6.72532 -0.119096,11.60749 -0.707839,5.82481 -1.240391,7.09969 -3.091009,7.39959 -0.662476,0.10736 -1.231761,-0.0602 -2.508004,-0.73834 z"
         id="path118"
         inkscape:connector-curvature="0" />
      <path
         style="fill:#abda8c;stroke-width:0.25400001"
         d="m 107.68544,169.82759 c -0.32511,-0.13033 -1.08439,-0.64117 -1.68728,-1.13519 -0.98144,-0.80422 -1.28549,-0.90912 -2.90528,-1.00241 -2.20597,-0.12705 -3.161042,-0.71301 -3.905031,-2.39582 -0.283626,-0.64152 -0.711428,-1.45215 -0.950674,-1.8014 -2.537452,-3.70417 -3.289856,-5.28174 -3.108477,-6.51755 0.06158,-0.41958 -0.07455,-1.3822 -0.302517,-2.13916 -0.985479,-3.27231 -1.649691,-8.64761 -1.299334,-10.51517 0.256471,-1.36712 0.441711,-0.94824 0.665251,1.50434 0.198354,2.17622 0.859028,3.69754 1.605763,3.69754 0.172535,0 0.804916,-0.69655 1.405293,-1.54788 0.710928,-1.0081 1.418651,-1.69455 2.029473,-1.9685 0.515836,-0.23134 1.435443,-0.81494 2.043563,-1.29689 1.09679,-0.86923 1.48453,-0.98081 5.85738,-1.68566 0.51227,-0.0826 2.21999,0.1237 4.02987,0.48676 2.98646,0.59909 3.19298,0.6812 4.20062,1.67011 0.67994,0.66732 1.29138,1.04006 1.70611,1.04006 0.80419,0 1.89319,1.30304 2.85608,3.41742 0.47463,1.04223 1.19899,1.99341 2.33003,3.0596 1.5762,1.48583 1.64129,1.59553 1.64129,2.76637 0,0.85236 -0.16968,1.45748 -0.56394,2.01116 -0.36107,0.50708 -0.62202,1.35319 -0.72541,2.35211 -0.2479,2.39509 -1.23733,4.15413 -3.25242,5.78225 -1.56632,1.26553 -1.81558,1.37856 -3.27237,1.48394 -1.13557,0.0821 -1.73783,0.26281 -2.15188,0.64553 -0.31624,0.2923 -1.32743,0.94235 -2.24708,1.44454 -1.70145,0.92911 -2.83307,1.11132 -3.99903,0.6439 z M 85.924566,141.78953 c -0.5588,-0.17653 -2.237407,-0.90428 -3.730241,-1.61722 -1.492832,-0.71295 -4.007432,-1.88456 -5.588,-2.60359 -4.532305,-2.06183 -6.717157,-3.4494 -8.973544,-5.69895 -3.638623,-3.62761 -5.66311,-7.88252 -5.902894,-12.40626 -0.228323,-4.30752 1.00595,-7.83137 3.603514,-10.28804 3.001116,-2.83834 7.026074,-3.75913 11.493571,-2.62939 2.352558,0.59491 5.33052,1.99176 7.104217,3.33233 4.038488,3.05229 7.544781,9.72791 8.249935,15.70703 0.560873,4.75572 -0.09553,11.01495 -1.456585,13.88955 -0.946046,1.99808 -2.868001,2.92484 -4.799973,2.31454 z"
         id="path116"
         inkscape:connector-curvature="0" />
      <path
         style="fill:#95d183;stroke-width:0.25400001"
         d="m 107.78806,168.61047 c -0.44216,-0.85505 -2.04825,-2.3237 -2.54116,-2.3237 -0.18974,0 -0.40836,0.16514 -0.48581,0.36698 -0.17883,0.46604 -1.68222,0.75495 -2.81885,0.54172 -0.93904,-0.17617 -2.3078,-1.72169 -2.604386,-2.9407 -0.08497,-0.34925 -0.570639,-1.14935 -1.079259,-1.778 -0.508617,-0.62865 -1.120909,-1.42875 -1.360647,-1.778 -0.239738,-0.34925 -0.635125,-0.91552 -0.878635,-1.25838 -0.28673,-0.40371 -0.498167,-1.34352 -0.600016,-2.667 -0.0865,-1.12399 -0.243812,-2.84372 -0.349588,-3.82162 l -0.192319,-1.778 0.549981,0.5715 c 0.854591,0.88802 1.208258,0.71438 1.552014,-0.762 0.583146,-2.50455 1.33014,-3.37455 5.558485,-6.47383 0.23586,-0.17289 1.45211,-0.49338 2.70277,-0.7122 3.65101,-0.63881 6.33575,0.0299 9.91154,2.46882 0.98758,0.67359 1.91589,1.22471 2.06291,1.22471 0.14702,0 0.75679,1.07928 1.35504,2.3984 0.84873,1.87141 1.24255,2.46253 1.79233,2.69025 1.09474,0.45346 1.12589,0.97848 0.11312,1.90615 -0.76963,0.70495 -0.89601,0.98105 -0.89601,1.9575 0,0.62524 -0.0724,1.66484 -0.16084,2.31023 -0.17094,1.24712 -0.17896,1.2371 1.24034,1.54809 0.60054,0.13159 0.6985,0.2783 0.6985,1.04615 0,1.12278 -0.49639,1.93023 -2.19542,3.57122 -0.84035,0.81165 -1.65758,1.35855 -2.17826,1.45773 -2.88373,0.5493 -3.38922,0.72818 -4.40116,1.55738 -1.30685,1.07087 -2.11424,1.4009 -3.42718,1.4009 -0.83488,0 -1.05256,-0.1153 -1.36749,-0.7243 z m 3.83504,-0.94814 c 0.60725,-0.60726 0.62536,-0.68752 0.24167,-1.07121 -0.5224,-0.5224 -2.52696,-0.47563 -3.37298,0.0787 -0.83655,0.54813 -0.78183,1.33309 0.10228,1.46702 1.79324,0.27165 2.37381,0.18071 3.02903,-0.47451 z M 82.241566,138.74955 c -4.30975,-1.3092 -9.186194,-3.49285 -11.557,-5.17516 -3.854115,-2.73486 -6.689245,-6.88233 -7.64681,-11.1864 -0.557365,-2.50525 -0.382519,-6.2009 0.388895,-8.21996 1.617736,-4.23417 5.690293,-7.03796 10.253124,-7.05885 2.958988,-0.0135 7.780464,1.74052 10.085791,3.66925 3.290738,2.75316 5.899173,7.1174 7.013169,11.7339 0.605873,2.51081 0.653084,3.07798 0.535764,6.43644 -0.104587,2.99387 -0.247718,4.05239 -0.764964,5.65715 -1.426121,4.4246 -3.680953,5.5492 -8.307969,4.14363 z"
         id="path114"
         inkscape:connector-curvature="0" />
      <path
         style="fill:#85ca7d;stroke-width:0.25400001"
         d="m 101.2213,166.43422 c -0.80281,-0.80282 -1.501842,-2.22136 -1.668392,-3.3857 -0.145633,-1.01811 -0.294406,-1.264 -0.960034,-1.58678 -0.43323,-0.21009 -1.247513,-0.91678 -1.809521,-1.57044 -1.000966,-1.1642 -1.02158,-1.22747 -1.00952,-3.09861 0.01191,-1.8479 0.03315,-1.91264 0.652033,-1.98653 0.60104,-0.0718 0.663908,-0.22356 1.039601,-2.51004 0.492626,-2.99812 1.050918,-3.91226 3.681993,-6.02885 2.29477,-1.84605 3.27179,-2.17431 6.52451,-2.19212 2.38787,-0.0131 2.49244,0.0115 4.60116,1.0807 1.18677,0.60175 2.79293,1.66021 3.56927,2.35214 1.18826,1.05909 1.501,1.52881 1.97733,2.96992 0.31121,0.94152 0.76323,2.0839 1.00449,2.53862 0.56963,1.07361 0.43972,2.61293 -0.44864,5.31592 -0.64776,1.97091 -0.6606,2.10364 -0.2476,2.56 0.57033,0.63021 0.55121,0.73823 -0.16237,0.91732 -0.32888,0.0826 -1.29997,0.77647 -2.15797,1.54205 -2.00585,1.78979 -2.0435,1.8071 -4.68641,2.15502 -1.22944,0.16184 -2.5221,0.40329 -2.87259,0.53655 -0.52126,0.19818 -0.942,0.0806 -2.31144,-0.64617 -0.92081,-0.48865 -1.93578,-0.88845 -2.2555,-0.88845 -0.52211,0 -0.57641,0.10994 -0.53322,1.0795 0.0461,1.03521 0.0155,1.08267 -0.74555,1.15671 -0.4646,0.0452 -0.9545,-0.0836 -1.18163,-0.31076 z M 82.622566,137.40264 c -3.260959,-0.45366 -8.455843,-2.45621 -11.191751,-4.31425 -3.055256,-2.07493 -5.504779,-5.14236 -6.876143,-8.6107 -0.618645,-1.56462 -0.694593,-2.09136 -0.710405,-4.92692 -0.02421,-4.34202 0.489545,-5.75011 3.014294,-8.26155 1.484112,-1.4763 2.083578,-1.88463 3.470367,-2.36392 3.415386,-1.18038 6.525486,-0.8925 10.261638,0.94984 3.708697,1.82881 6.628122,5.14605 8.403267,9.54833 1.067029,2.64619 1.43,4.70762 1.408844,8.0013 -0.03442,5.35853 -1.906595,9.10407 -4.931285,9.8657 -1.175543,0.296 -1.449827,0.3068 -2.848826,0.11217 z"
         id="path112"
         inkscape:connector-curvature="0" />
      <path
         style="fill:#76c376;stroke-width:0.25400001"
         d="m 100.69347,164.91558 c -0.36954,-0.48451 -0.67254,-1.14572 -0.67332,-1.46937 -7.6e-4,-0.32364 -0.119569,-1.01387 -0.263978,-1.53384 -0.223091,-0.80328 -0.410302,-0.98518 -1.245383,-1.21004 -0.594624,-0.16012 -1.303335,-0.62969 -1.794286,-1.18886 -0.717032,-0.81665 -0.792551,-1.04251 -0.648922,-1.94073 0.20164,-1.26099 0.313431,-1.44597 0.873851,-1.44597 0.380393,0 0.488704,-0.40951 0.737398,-2.78803 0.336845,-3.22158 0.646595,-3.94224 2.43386,-5.66253 2.62875,-2.53022 4.67249,-3.47365 7.54628,-3.48347 2.5273,-0.009 5.71625,1.45448 7.97363,3.65838 1.15768,1.13026 1.42369,1.5936 2.12706,3.70486 0.96713,2.90298 1.00791,4.34341 0.18868,6.66459 -0.85376,2.41901 -1.71938,3.78293 -3.17357,5.00045 -1.08333,0.90701 -1.67542,1.16276 -4.19869,1.81356 l -2.93751,0.75765 -1.35362,-0.64036 c -1.43755,-0.68007 -3.86892,-1.24812 -4.27308,-0.99833 -0.13327,0.0824 -0.20698,0.44318 -0.1638,0.80183 0.11706,0.97237 -0.39607,0.95469 -1.1546,-0.0398 z M 78.323852,135.4019 c -3.89334,-1.06775 -6.900786,-2.81285 -9.430519,-5.47216 -3.508266,-3.68796 -5.016584,-8.45031 -4.080325,-12.88321 1.665915,-7.8876 10.632793,-10.35022 17.998773,-4.94309 1.707527,1.25344 3.696012,3.71479 4.829949,5.97852 3.299537,6.58699 2.250908,15.25208 -2.115337,17.47957 -1.390325,0.70929 -4.266636,0.64554 -7.202541,-0.15963 z"
         id="path110"
         inkscape:connector-curvature="0" />
      <path
         style="fill:#66bc6e;stroke-width:0.25400001"
         d="m 106.37157,164.86342 c -0.48895,-0.2131 -1.74055,-0.62189 -2.78134,-0.90841 -1.52788,-0.42062 -1.98693,-0.46187 -2.38354,-0.21418 -0.64513,0.40289 -0.8299,0.0978 -1.05821,-1.74759 -0.218039,-1.76228 -0.451859,-2.05647 -1.634493,-2.05647 -1.20523,0 -2.584064,-1.2727 -2.142675,-1.97774 0.14987,-0.23939 0.56197,-0.47014 0.915776,-0.51278 l 0.643283,-0.0775 0.10076,-3.23389 c 0.09135,-2.93187 0.16292,-3.33996 0.766379,-4.36968 0.83665,-1.42764 3.45746,-3.67282 5.28806,-4.53015 1.15521,-0.54102 1.77067,-0.65472 3.556,-0.65698 1.91445,-0.003 2.35875,0.0916 3.92258,0.82963 3.29295,1.55415 5.01532,3.4564 5.99253,6.61835 1.2491,4.04173 0.0225,8.19057 -3.20289,10.83354 -0.9015,0.73871 -1.81222,1.16283 -3.63978,1.69501 -2.79638,0.8143 -3.12854,0.83792 -4.34244,0.30885 z M 78.79599,134.53019 c -1.630218,-0.32351 -4.950402,-1.70635 -6.258359,-2.60656 -2.833558,-1.95023 -5.058796,-4.61403 -6.069836,-7.26612 -1.317648,-3.45637 -1.224638,-6.71014 0.276162,-9.66089 2.174052,-4.27444 7.374194,-5.90389 12.449609,-3.90104 3.330519,1.31428 5.970854,3.89191 7.750251,7.56619 1.359185,2.80658 1.739766,4.6894 1.601442,7.92271 -0.08789,2.05441 -0.234048,2.77227 -0.83346,4.09358 -0.830547,1.8308 -2.48144,3.45606 -3.915075,3.85428 -1.064057,0.29557 -3.505835,0.29452 -5.000734,-0.002 z"
         id="path108"
         inkscape:connector-curvature="0" />
      <path
         style="fill:#53b365;stroke-width:0.25400001"
         d="m 105.20168,164.15714 c -2.2261,-0.67002 -4.41107,-1.67478 -4.439,-2.04129 -0.0981,-1.28767 -0.39521,-1.93426 -1.327064,-2.8883 l -1.064865,-1.09022 -9.1e-5,-3.48178 c -9.1e-5,-3.33967 0.02837,-3.5302 0.697304,-4.66813 0.908573,-1.54558 3.749816,-3.88932 5.522616,-4.5556 4.20721,-1.58121 9.75379,0.58588 11.81722,4.61708 1.6884,3.29853 1.76135,6.29318 0.22694,9.31622 -1.42418,2.80585 -3.19816,4.17253 -6.4694,4.98405 -2.07123,0.51382 -2.69923,0.48953 -4.96366,-0.19203 z m -8.140464,-5.37433 c -0.08272,-0.21557 -0.0955,-0.44686 -0.02838,-0.51398 0.226288,-0.22628 0.956734,0.19524 0.956734,0.55211 0,0.48066 -0.740954,0.45023 -0.92835,-0.0381 z m -17.74065,-25.43402 c -4.893348,-0.68244 -9.321239,-3.86536 -11.402019,-8.19615 -1.018396,-2.11962 -1.043981,-2.23823 -1.043981,-4.83987 0,-3.21302 0.447703,-4.4089 2.370351,-6.33154 1.3764,-1.3764 2.498082,-1.95012 4.57168,-2.33831 5.984123,-1.12028 12.669728,4.67128 13.502023,11.69644 0.45086,3.80557 -0.477429,6.99609 -2.528515,8.69049 -1.204267,0.99484 -3.618705,1.57707 -5.469539,1.31894 z"
         id="path106"
         inkscape:connector-curvature="0" />
      <path
         style="fill:#3ba457;stroke-width:0.25400001"
         d="m 105.22857,163.64357 c -2.7201,-0.87185 -3.35304,-1.28777 -4.04861,-2.66043 -0.34224,-0.67538 -0.91329,-1.57383 -1.268996,-1.99656 -0.899899,-1.06947 -1.508005,-3.58709 -1.289276,-5.33773 0.353512,-2.82943 0.771632,-3.70135 2.591122,-5.4034 2.40605,-2.25073 3.41405,-2.65968 6.55576,-2.65968 2.29126,0 2.67679,0.0705 3.93692,0.71987 3.02687,1.55983 4.50434,3.4978 5.33032,6.99166 0.5592,2.3654 -0.18994,5.30741 -1.93354,7.59338 -0.97196,1.27431 -3.05862,2.5337 -4.9207,2.96986 -2.13824,0.50084 -2.80458,0.47165 -4.953,-0.21697 z M 76.870698,130.99985 c -1.475169,-0.47184 -3.719289,-1.87276 -5.043132,-3.14823 -4.159057,-4.00709 -4.329019,-10.20412 -0.358742,-13.08018 1.461734,-1.05887 2.675598,-1.38346 4.776884,-1.27736 2.858163,0.14434 5.55151,1.74852 7.3709,4.39019 3.005719,4.36417 2.740746,10.12086 -0.573098,12.45093 -0.997412,0.70132 -1.301753,0.7775 -3.299846,0.82606 -1.210605,0.0294 -2.503439,-0.0432 -2.872966,-0.16141 z"
         id="path104"
         inkscape:connector-curvature="0" />
      <path
         style="fill:#2e934c;stroke-width:0.25400001"
         d="m 106.04098,163.22952 c -0.53107,-0.13324 -1.57474,-0.53043 -2.31925,-0.88264 -1.12823,-0.53373 -1.56871,-0.95868 -2.64483,-2.55158 -1.458478,-2.15886 -1.813882,-3.17853 -1.815917,-5.20993 -0.0034,-3.39385 1.562327,-5.89255 4.685777,-7.47793 1.71114,-0.86854 2.11467,-0.97134 3.81275,-0.97134 1.68138,0 2.11923,0.10882 3.81986,0.94931 2.413,1.19257 3.69373,2.70324 4.47643,5.2801 0.92523,3.04612 0.22994,6.15501 -1.90507,8.51821 -1.74521,1.93174 -5.46803,3.00859 -8.10975,2.3458 z M 76.761054,127.7244 c -1.606383,-0.55533 -3.732878,-2.09347 -4.381028,-3.16889 -1.833717,-3.04255 -0.893046,-6.68586 2.042882,-7.91227 3.5395,-1.47853 7.968526,1.70361 8.487316,6.09792 0.275831,2.33639 -0.718833,4.30598 -2.563884,5.07689 -1.142434,0.47734 -1.998254,0.45499 -3.585286,-0.0936 z"
         id="path102"
         inkscape:connector-curvature="0" />
      <path
         style="fill:#0b6f39;stroke-width:0.25400001"
         d="m 105.73635,161.88559 c -1.4942,-0.49089 -3.04647,-1.60293 -3.77575,-2.70495 -3.425147,-5.17575 -0.25414,-11.67854 5.69922,-11.68739 2.28327,-0.003 3.75277,0.55465 5.25606,1.99598 4.70887,4.51483 1.92946,12.3024 -4.51231,12.64293 -0.92829,0.0491 -2.09585,-0.0589 -2.66722,-0.24657 z"
         id="path100"
         inkscape:connector-curvature="0" />
      <path
         style="fill:#004f2c;stroke-width:0.25400001"
         d="m 106.43224,159.59771 c -1.15509,-0.41891 -2.51887,-1.56034 -3.02049,-2.52802 -0.2336,-0.45064 -0.43136,-1.44134 -0.44172,-2.21292 -0.0626,-4.66251 5.437,-6.77907 8.57872,-3.30156 2.54941,2.8219 1.2911,7.07379 -2.40733,8.13448 -1.07672,0.3088 -1.65857,0.28905 -2.70918,-0.092 z"
         id="path98"
         inkscape:connector-curvature="0" />
    </g>
    <flowRoot
       xml:space="preserve"
       id="flowRoot928"
       style="font-style:normal;font-weight:normal;font-size:40px;line-height:1.25;font-family:sans-serif;letter-spacing:0px;word-spacing:0px;opacity:0.6;fill:#333333;fill-opacity:1;stroke:none"
       transform="matrix(0.26458333,0,0,0.26458333,13.368089,-75.435564)"><flowRegion
         id="flowRegion930"
         style="fill:#333333"><rect
           id="rect932"
           width="408.57144"
           height="101.42857"
           x="148.57143"
           y="773.94824"
           style="fill:#333333" /></flowRegion><flowPara
         id="flowPara934"
         style="font-style:normal;font-variant:normal;font-weight:500;font-stretch:normal;font-size:85.33333588px;font-family:'Fira Sans';-inkscape-font-specification:'Fira Sans, Medium';font-variant-ligatures:normal;font-variant-caps:normal;font-variant-numeric:normal;font-feature-settings:normal;text-align:start;writing-mode:lr-tb;text-anchor:start;fill:#333333">CASTRO</flowPara></flowRoot>  </g>
</svg>
