<?xml version="1.0" encoding="UTF-8" standalone="no"?>
<!-- Created with Inkscape (http://www.inkscape.org/) -->

<svg
   xmlns:dc="http://purl.org/dc/elements/1.1/"
   xmlns:cc="http://creativecommons.org/ns#"
   xmlns:rdf="http://www.w3.org/1999/02/22-rdf-syntax-ns#"
   xmlns:svg="http://www.w3.org/2000/svg"
   xmlns="http://www.w3.org/2000/svg"
   xmlns:sodipodi="http://sodipodi.sourceforge.net/DTD/sodipodi-0.dtd"
   xmlns:inkscape="http://www.inkscape.org/namespaces/inkscape"
   width="108.77233mm"
   height="108.77233mm"
   viewBox="0 0 108.77233 108.77233"
   version="1.1"
   id="svg8"
   inkscape:version="0.92.4 (unknown)"
   sodipodi:docname="castro_logo_PuBuGn.svg">
  <defs
     id="defs2" />
  <sodipodi:namedview
     id="base"
     pagecolor="#ffffff"
     bordercolor="#666666"
     borderopacity="1.0"
     inkscape:pageopacity="0.0"
     inkscape:pageshadow="2"
     inkscape:zoom="0.98994949"
     inkscape:cx="-33.523249"
     inkscape:cy="226.73705"
     inkscape:document-units="mm"
     inkscape:current-layer="layer1"
     showgrid="false"
     inkscape:window-width="1920"
     inkscape:window-height="983"
     inkscape:window-x="0"
     inkscape:window-y="27"
     inkscape:window-maximized="1" />
  <metadata
     id="metadata5">
    <rdf:RDF>
      <cc:Work
         rdf:about="">
        <dc:format>image/svg+xml</dc:format>
        <dc:type
           rdf:resource="http://purl.org/dc/dcmitype/StillImage" />
        <dc:title></dc:title>
      </cc:Work>
    </rdf:RDF>
  </metadata>
  <g
     inkscape:label="Layer 1"
     inkscape:groupmode="layer"
     id="layer1"
     transform="translate(-51.199208,-103.07566)">
    <circle
       style="opacity:0.8;fill:#ffffff;fill-opacity:1;stroke:#202020;stroke-width:0.91460222;stroke-miterlimit:4;stroke-dasharray:none;stroke-opacity:0.50196078"
       id="path121"
       cx="105.58537"
       cy="157.46182"
       r="53.928864"
       inkscape:export-xdpi="96"
       inkscape:export-ydpi="96" />
    <g
       id="g72">
      <path
         style="fill:#f3eaf3;stroke-width:0.25399998"
         d="m 123.63146,190.92438 c -1.24883,-0.93512 -1.47981,-1.01804 -2.44069,-0.87616 -0.8723,0.1288 -1.33596,0.0181 -2.6035,-0.62179 -0.8482,-0.42817 -1.54218,-0.87209 -1.54218,-0.9865 0,-0.56464 -1.8944,-2.04569 -2.81574,-2.20135 -0.55963,-0.0946 -1.59849,-0.61831 -2.39105,-1.20549 -1.09955,-0.81463 -1.46126,-1.26041 -1.67908,-2.06932 -0.15269,-0.56705 -0.54666,-1.56193 -0.87548,-2.21083 -0.32882,-0.6489 -0.54975,-1.22792 -0.49096,-1.28671 0.0588,-0.0588 -0.17494,-0.66359 -0.5194,-1.34398 -0.34446,-0.6804 -0.62629,-1.49099 -0.62629,-1.8013 0,-0.31032 -0.22456,-1.06248 -0.49901,-1.67146 l -0.49901,-1.10724 0.54999,-0.42054 c 0.46742,-0.35741 0.49953,-0.48134 0.2139,-0.8255 -0.18484,-0.22273 -0.51132,-0.40496 -0.7255,-0.40496 -0.65148,0 -2.06337,-1.24122 -2.59317,-2.27972 -0.27506,-0.53915 -1.10465,-1.70411 -1.84354,-2.58878 -1.48721,-1.78065 -2.534806,-3.1516 -3.493664,-4.57202 -2.281522,-3.37977 -4.205762,-5.88109 -5.192329,-6.7495 -0.628091,-0.55286 -2.374237,-1.63133 -3.880327,-2.39659 -5.65244,-2.87205 -6.685684,-3.54749 -8.868426,-5.79738 -1.152012,-1.18745 -2.376248,-2.55905 -2.720528,-3.048 -0.923798,-1.312 -2.96039,-4.77919 -2.96039,-5.03991 0,-0.12407 -0.222273,-0.50816 -0.493941,-0.85353 -0.271668,-0.34537 -0.60863,-1.13231 -0.748807,-1.74875 -1.596099,-7.01908 -1.317816,-11.33198 0.964194,-14.94331 0.40437,-0.63992 0.81234,-1.53196 0.906594,-1.98229 0.12014,-0.574 0.564452,-1.13142 1.486167,-1.8645 0.723136,-0.57514 1.521912,-1.37174 1.775059,-1.77022 0.258986,-0.40767 0.866338,-0.85852 1.388839,-1.03096 1.491785,-0.49233 7.245566,-0.43841 9.213652,0.0863 2.204806,0.58787 4.468294,1.49284 5.618975,2.24653 0.513552,0.33637 1.698147,1.06879 2.632433,1.62759 1.63368,0.97711 3.066419,1.96056 5.400569,3.70703 0.601,0.44969 1.26368,1.22676 1.47262,1.72682 0.20894,0.50007 0.58896,1.13938 0.84448,1.42068 0.25553,0.28131 0.60971,0.96867 0.78708,1.52747 0.17737,0.5588 0.6781,1.5875 1.11274,2.286 1.83723,2.95262 3.2039,7.49467 3.58501,11.91465 0.0953,1.10476 0.33321,2.46215 0.52877,3.01643 0.19556,0.55428 0.35557,1.62207 0.35557,2.37285 0,1.56144 0.3153,1.74021 1.17564,0.66657 0.55494,-0.69253 0.56622,-0.6947 1.31873,-0.254 0.41745,0.24447 1.05852,0.4445 1.4246,0.4445 0.47626,0 0.73428,0.18063 0.90703,0.635 0.28409,0.74722 0.74219,0.79598 1.85411,0.19737 0.67918,-0.36564 1.4153,-0.42787 4.47533,-0.37833 4.1382,0.067 5.31018,0.32543 6.45787,1.42402 1.61931,1.55002 2.05419,1.78142 8.16769,4.34608 4.90669,2.0584 7.54795,3.72136 9.78072,6.15802 2.0664,2.25512 3.38835,4.60756 4.63338,8.24526 1.01418,2.9632 1.06818,3.26977 1.06434,6.04257 -0.004,2.84629 -0.0317,2.98922 -1.08567,5.588 -1.29056,3.18221 -1.72309,3.63972 -3.22768,3.41409 -1.30754,-0.19608 -1.92511,0.10215 -2.65411,1.2817 -0.30328,0.49072 -0.74526,0.89221 -0.98218,0.89221 -0.23693,0 -0.71338,0.19941 -1.05879,0.44313 -1.2822,0.90473 -4.49131,2.09687 -5.64452,2.09687 -0.43208,0 -0.91408,0.24408 -1.25398,0.635 -0.64064,0.7368 -1.12811,0.79917 -1.76205,0.22546 -0.38703,-0.35025 -0.86158,-0.38282 -3.27794,-0.22497 l -2.8254,0.18457 -0.76052,1.05047 c -1.48513,2.05132 -2.94145,2.23914 -5.06023,0.6526 z m 1.97187,-0.90886 c 0.18261,-0.47588 -0.52442,-1.10627 -1.24079,-1.10627 -0.312,0 -0.45945,0.19021 -0.45945,0.59267 0,0.32597 0.0762,0.66887 0.16933,0.762 0.33147,0.33147 1.37326,0.16244 1.53091,-0.2484 z"
         id="path102"
         inkscape:connector-curvature="0" />
      <path
         style="fill:#e4dceb;stroke-width:0.25399998"
         d="m 118.82309,188.40125 c -0.42874,-0.4191 -0.88556,-0.762 -1.01516,-0.762 -0.1296,0 -0.93839,-0.62705 -1.79731,-1.39345 -0.85893,-0.7664 -2.02475,-1.65223 -2.59074,-1.9685 -0.98061,-0.54798 -1.22736,-0.86811 -3.61754,-4.69339 -0.36783,-0.58868 -0.90042,-2.05291 -1.18351,-3.25383 -0.48259,-2.04717 -0.4881,-2.21291 -0.0883,-2.65468 0.39957,-0.44153 0.3981,-0.5144 -0.0234,-1.15763 -0.24738,-0.37754 -0.94142,-0.89719 -1.54231,-1.15476 -0.73909,-0.31681 -1.36012,-0.85703 -1.91966,-1.66985 -0.45491,-0.66084 -1.18323,-1.60818 -1.61848,-2.10521 -0.43526,-0.49703 -1.33728,-1.76095 -2.00449,-2.8087 -1.640389,-2.57596 -5.047136,-6.96968 -6.542668,-8.43815 -1.386476,-1.36139 -3.399749,-2.74957 -4.861405,-3.35203 -0.545559,-0.22486 -2.401224,-1.21495 -4.123702,-2.20019 -2.680511,-1.53324 -3.409889,-2.09687 -5.061885,-3.91163 -2.778686,-3.05247 -4.996327,-6.6933 -6.03681,-9.91099 -0.773618,-2.39242 -1.250823,-5.96907 -1.07822,-8.08128 0.233926,-2.86265 1.630174,-6.14534 3.68173,-8.65602 1.346441,-1.64777 1.852064,-2.05991 3.498959,-2.85203 1.605592,-0.77226 2.203961,-0.92733 3.605469,-0.93437 4.232425,-0.0213 9.233218,0.99993 11.099861,2.26667 0.498744,0.33846 1.442093,0.88663 2.096325,1.21815 2.033278,1.03034 3.913946,2.59814 5.579286,4.65112 3.99011,4.91887 6.86484,11.85287 7.29452,17.59476 0.0889,1.18745 0.32398,2.74809 0.52248,3.46809 0.1985,0.72 0.36092,1.94873 0.36092,2.7305 v 1.42141 h 0.84905 c 0.46697,0 1.3528,0.26922 1.9685,0.59828 0.94077,0.50279 1.10778,0.70549 1.04633,1.27 -0.0884,0.812 0.40761,0.89082 1.03018,0.16372 0.23923,-0.2794 0.69326,-0.51295 1.00895,-0.519 3.04467,-0.0583 7.34412,-0.50654 8.17029,-0.85173 0.72062,-0.3011 1.34517,-0.36752 2.28563,-0.24309 1.12829,0.14929 1.49001,0.35927 2.82363,1.63915 0.95463,0.91616 2.14805,1.74571 3.175,2.20694 1.58786,0.71316 2.43659,1.21407 6.64501,3.92183 1.92378,1.23779 3.76343,3.18948 3.76343,3.99264 0,0.22626 0.40786,1.03618 0.90637,1.79982 1.73965,2.66491 2.03552,3.49709 2.36949,6.66462 0.3971,3.76635 0.21296,5.23356 -0.95195,7.58489 -0.88242,1.78112 -1.02445,1.92893 -2.95891,3.07956 -2.21887,1.31978 -3.175,2.22597 -3.175,3.00914 0,0.84749 -0.69771,1.91735 -1.44853,2.22115 -0.39076,0.15811 -1.39627,0.26557 -2.23447,0.23879 -1.7929,-0.0573 -5.16707,0.36657 -7.493,0.94124 -0.90805,0.22435 -2.73685,0.50042 -4.064,0.61348 -1.32715,0.11307 -2.83796,0.393 -3.35735,0.62207 -1.37321,0.60565 -2.10619,0.52103 -2.99264,-0.34551 z"
         id="path100"
         inkscape:connector-curvature="0" />
      <path
         style="fill:#d0d0e5;stroke-width:0.25399998"
         d="m 122.14615,186.48927 c -1.6493,-0.79041 -2.06947,-0.88786 -3.56559,-0.82698 l -1.69597,0.069 -1.98915,-1.64953 c -2.43951,-2.02299 -2.71009,-2.39913 -2.06508,-2.87077 0.44701,-0.32686 0.44885,-0.36569 0.0334,-0.70533 -1.69643,-1.38695 -2.91831,-2.81345 -3.16217,-3.69172 -0.344,-1.23893 -0.35481,-2.38271 -0.0225,-2.38271 0.1397,0 0.254,-0.32913 0.254,-0.7314 0,-0.72877 -0.96146,-1.70558 -2.8575,-2.90313 -0.89486,-0.5652 -0.91711,-1.19147 -0.0423,-1.19147 0.3609,0 0.61807,-0.10893 0.5715,-0.24207 -0.11221,-0.32084 -5.04185,-6.02924 -8.132497,-9.41724 -3.809265,-4.17576 -5.204226,-5.27084 -9.609,-7.54329 -4.238384,-2.1866 -6.48577,-3.71405 -8.431461,-5.73046 -6.258164,-6.48564 -8.338262,-16.20983 -4.876589,-22.79741 1.234531,-2.34931 3.17123,-4.28947 5.351729,-5.36127 1.705851,-0.83849 1.78135,-0.85092 5.036482,-0.8291 3.931196,0.0264 5.470723,0.3836 8.805657,2.04333 2.704399,1.34593 4.352229,2.51181 6.277129,4.44121 2.07215,2.07701 4.76126,6.35754 5.7942,9.22321 1.31739,3.65482 2.35364,8.73756 2.3599,11.5751 0.001,0.62865 0.17207,1.88595 0.37931,2.794 0.20723,0.90805 0.46537,2.3368 0.57363,3.175 0.19204,1.4868 0.21577,1.524 0.97211,1.524 0.58473,0 1.03418,0.27216 1.82872,1.1074 0.95722,1.00625 1.1416,1.09623 2.01873,0.98512 0.53091,-0.0673 1.76539,-0.37934 2.74329,-0.69353 1.4485,-0.4654 2.5571,-0.59434 5.98214,-0.69578 l 4.20414,-0.12452 2.06315,1.03733 c 1.13474,0.57053 2.1367,1.15634 2.22659,1.30178 0.0899,0.14545 0.58431,0.48505 1.09871,0.75466 0.5144,0.26961 2.77741,2.30066 5.02892,4.51344 3.77026,3.7054 4.17659,4.19458 5.1435,6.19221 0.57741,1.19294 1.04985,2.32376 1.04985,2.51294 0,0.18917 -0.3597,0.64423 -0.79932,1.01125 -0.74308,0.62035 -0.81223,0.8182 -0.983,2.81249 -0.23283,2.71903 -0.381,3.06105 -2.19477,5.0662 -0.82138,0.90805 -1.80176,2.06697 -2.17863,2.57537 -0.69905,0.94302 -3.2288,2.81781 -4.46309,3.30757 -0.37631,0.14932 -1.1178,0.25897 -1.64776,0.24367 -1.03758,-0.03 -1.94351,0.43697 -3.01184,1.55234 -0.55321,0.57756 -0.89324,0.70359 -1.905,0.70607 -0.67738,0.002 -1.86024,0.17175 -2.62859,0.37798 -0.76835,0.20624 -1.45738,0.37633 -1.53117,0.37799 -0.0738,0.002 -0.97549,-0.40018 -2.00377,-0.89297 z"
         id="path98"
         inkscape:connector-curvature="0" />
      <path
         style="fill:#b6c3dd;stroke-width:0.25399998"
         d="m 122.16663,184.48129 c -1.09039,-0.39249 -1.70812,-0.77536 -1.9154,-1.18718 -0.32527,-0.64624 -1.05843,-0.73939 -2.95214,-0.37511 -0.87152,0.16764 -0.93148,0.12242 -3.048,-2.29865 -2.6963,-3.08425 -2.88964,-3.4153 -2.49743,-4.27611 0.25458,-0.55874 0.21748,-0.76401 -0.25313,-1.40056 -0.3033,-0.41022 -0.55144,-1.03281 -0.55144,-1.38354 0,-0.414 -0.26728,-0.83529 -0.762,-1.20105 -0.83695,-0.61878 -0.97344,-0.97584 -0.37303,-0.97584 0.68523,0 0.68844,-0.69562 0.011,-2.38883 -0.36344,-0.90843 -0.96433,-2.85041 -1.33533,-4.3155 -0.66752,-2.63607 -0.68167,-2.66237 -1.35844,-2.52702 -1.03146,0.2063 -2.93078,-0.90891 -6.72325,-3.94762 -4.07519,-3.26524 -4.957538,-3.83654 -9.23835,-5.98166 -7.248253,-3.63211 -10.118184,-6.19666 -12.809352,-11.44636 -4.157939,-8.11096 -2.108705,-17.32183 4.590357,-20.63269 1.797979,-0.88861 2.108576,-0.95856 4.640745,-1.04523 2.131169,-0.0729 3.157301,0.0193 4.779569,0.4295 2.138626,0.54081 5.598106,2.1339 7.148027,3.29165 2.504034,1.87046 5.348944,5.53595 7.007944,9.02934 1.72045,3.62277 2.89806,10.04672 2.89806,15.8091 0,3.04589 0.0423,3.35714 0.4714,3.46935 0.42713,0.1117 0.48529,0.51413 0.61918,4.28413 0.19563,5.50899 0.365,5.98826 1.6824,4.76091 0.47884,-0.44611 0.55564,-0.71261 0.43063,-1.49434 -0.21298,-1.33196 0.32852,-1.77417 1.2678,-1.03532 0.98769,0.77691 2.1875,0.69188 3.23678,-0.2294 0.47733,-0.4191 1.14526,-0.762 1.48429,-0.762 0.33903,0 0.83829,-0.16782 1.10947,-0.37293 0.27117,-0.2051 0.96111,-0.37655 1.53318,-0.381 0.71011,-0.006 1.186,-0.16926 1.49987,-0.51607 0.54133,-0.59817 1.62477,-0.6565 2.75561,-0.14835 0.44021,0.19781 1.14329,0.41677 1.56239,0.48657 1.63377,0.27211 3.84342,1.23852 4.6951,2.05345 0.4911,0.46989 1.29295,1.0537 1.7819,1.29734 0.48895,0.24364 1.35341,0.86755 1.92102,1.38646 0.56762,0.51891 1.56838,1.25779 2.22393,1.64197 0.79061,0.46333 1.24669,0.92527 1.35464,1.37203 0.0895,0.37044 0.59036,1.14281 1.11302,1.71638 0.52265,0.57357 1.07155,1.26943 1.21976,1.54637 0.31526,0.58907 0.80363,4.22436 0.80363,5.98206 0,1.04968 -0.087,1.25826 -0.62789,1.50469 -0.44574,0.20309 -0.73893,0.66204 -1.01065,1.58206 -0.52721,1.78501 -1.1162,2.65714 -2.71964,4.027 -1.02325,0.87419 -1.57609,1.16936 -2.15911,1.15279 -0.47103,-0.0134 -1.12599,0.23434 -1.6417,0.62096 -0.47191,0.35379 -1.14332,0.7303 -1.49204,0.83669 -0.34871,0.1064 -0.74876,0.33916 -0.889,0.51726 -0.42457,0.53921 -5.53044,2.14404 -6.75427,2.12294 -0.61639,-0.0106 -1.84496,-0.28001 -2.73016,-0.59864 z"
         id="path96"
         inkscape:connector-curvature="0" />
      <path
         style="fill:#a6bcd9;stroke-width:0.25399998"
         d="m 123.39509,184.15068 c -0.40087,-0.1541 -1.92377,-1.24191 -2.49465,-1.78193 -0.19139,-0.18104 -0.98718,-0.3175 -1.85162,-0.3175 -2.312,0 -3.35112,-0.64083 -4.30179,-2.65294 -0.42174,-0.89261 -1.29225,-2.40392 -1.93447,-3.35849 -1.5358,-2.28272 -2.14063,-3.71528 -1.95676,-4.63463 0.0885,-0.44231 -0.11469,-1.62065 -0.51382,-2.98024 -0.96292,-3.28016 -1.4918,-7.19546 -1.27915,-9.46952 0.29783,-3.18503 0.48981,-3.46673 0.82754,-1.2143 0.16319,1.08838 0.29672,2.44649 0.29672,3.01802 0,1.08932 0.82762,2.76124 1.35421,2.73573 0.16323,-0.008 0.79874,-0.70351 1.41223,-1.54577 0.6135,-0.84226 1.2993,-1.59562 1.524,-1.67412 1.1597,-0.40516 2.02292,-0.89041 2.86086,-1.6082 0.70743,-0.606 1.31179,-0.85213 2.54,-1.03446 3.41277,-0.50661 4.91822,-0.53382 6.54051,-0.11821 0.87407,0.22392 1.96225,0.40714 2.41818,0.40714 0.63192,0 1.17394,0.30188 2.28027,1.27 0.82207,0.71937 1.6996,1.27 2.024,1.27 0.79905,0 1.75782,1.10781 2.63791,3.048 0.48588,1.07113 1.29696,2.21384 2.3093,3.25353 0.85822,0.88139 1.62322,1.91009 1.70001,2.286 0.0768,0.3759 0.24872,1.09678 0.38207,1.60193 0.32169,1.21865 0.31752,1.24053 -0.23634,1.24053 -0.6639,0 -1.29921,1.0694 -1.29921,2.18692 0,1.26317 -1.5985,4.54653 -2.48633,5.10699 -0.37877,0.2391 -1.14587,0.7955 -1.70467,1.23642 -0.80243,0.63317 -1.36041,0.83918 -2.6544,0.98005 -1.31911,0.14361 -1.81085,0.32979 -2.52338,0.9554 -1.74701,1.53389 -4.42152,2.35095 -5.87122,1.79365 z M 98.099386,154.6779 c -2.222716,-1.08534 -5.1843,-2.51104 -6.5813,-3.16823 -3.56725,-1.67813 -5.077569,-2.57486 -7.051993,-4.187 -2.860789,-2.33588 -5.102306,-5.68434 -6.422661,-9.59441 -0.573222,-1.69754 -0.68912,-2.49189 -0.704126,-4.826 -0.02726,-4.23973 0.941578,-6.84657 3.499556,-9.41624 2.617858,-2.62983 5.88485,-3.67885 9.833927,-3.15766 4.49626,0.59341 8.075377,2.46058 11.213241,5.84976 4.77067,5.15277 6.98714,12.51223 6.26088,20.78836 -0.59608,6.79267 -2.07176,9.68478 -4.94159,9.68478 -0.81204,0 -2.02347,-0.4682 -5.105934,-1.97336 z"
         id="path94"
         inkscape:connector-curvature="0" />
      <path
         style="fill:#8fb4d5;stroke-width:0.25399998"
         d="m 122.84825,182.41033 c -0.99155,-1.31329 -1.12924,-1.40626 -1.84973,-1.24885 -0.42814,0.0935 -1.416,0.22686 -2.19525,0.29628 -1.25775,0.11204 -1.50583,0.0513 -2.2096,-0.54087 -0.43603,-0.3669 -1.08663,-1.26189 -1.44577,-1.98886 -0.60761,-1.22994 -1.30309,-2.28501 -2.96419,-4.49678 -0.81482,-1.08493 -1.07937,-1.88031 -1.01556,-3.05331 0.0268,-0.49188 -0.12587,-1.80633 -0.33916,-2.921 -0.62174,-3.24915 -0.45639,-4.21435 0.47774,-2.78869 0.59809,0.91281 0.84527,0.79465 1.26016,-0.60244 0.69802,-2.35051 1.37688,-3.18396 4.57036,-5.61115 1.45141,-1.10314 1.5892,-1.15189 4.36665,-1.545 1.97308,-0.27926 2.52642,-0.26859 4.05646,0.0782 2.33812,0.52998 3.76026,1.16705 5.44789,2.44042 0.76459,0.57692 1.58079,1.04894 1.81378,1.04894 0.38924,0 1.45948,1.85628 2.22793,3.8642 0.14507,0.37906 0.7204,0.97746 1.27852,1.32979 0.55812,0.35232 1.13858,0.87194 1.28991,1.1547 0.23799,0.44469 0.17944,0.54806 -0.43358,0.76555 -1.42206,0.50454 -1.46084,0.57482 -1.68047,3.04548 -0.22448,2.52529 -0.13165,2.78224 1.00807,2.79039 0.99276,0.007 1.14061,1.3699 0.30029,2.7679 -0.68667,1.14237 -2.95636,3.29763 -3.63861,3.45517 -0.2794,0.0645 -1.18081,0.23364 -2.00313,0.37583 -1.09875,0.19 -1.7863,0.49713 -2.59343,1.15851 -1.34138,1.09917 -2.5912,1.64447 -3.76906,1.64447 -0.78197,0 -1.01782,-0.17072 -1.96022,-1.41892 z m 4.44005,-0.68764 c 0.44319,-0.51402 0.44387,-0.5533 0.015,-0.86693 -0.98324,-0.71896 -3.40017,-0.1332 -3.40017,0.82406 0,0.19896 0.31433,0.43108 0.6985,0.51581 0.38418,0.0847 0.8128,0.19104 0.9525,0.23625 0.4766,0.15422 1.26929,-0.16994 1.73422,-0.70919 z M 98.122086,153.24888 c -10.207353,-3.39751 -14.868865,-6.61674 -17.87667,-12.34562 -1.510139,-2.87632 -1.910979,-4.49848 -1.914301,-7.747 -0.0034,-3.32371 0.441558,-5.01856 1.885081,-7.18025 2.796672,-4.18805 7.711308,-5.66867 13.578454,-4.09076 1.931139,0.51936 5.035606,2.28792 6.56604,3.74055 6.25659,5.93854 8.57432,15.1659 6.00657,23.91346 -0.57574,1.96137 -1.71307,3.43985 -3.14721,4.09122 -1.42708,0.64817 -2.1716,0.59244 -5.097964,-0.3816 z"
         id="path92"
         inkscape:connector-curvature="0" />
      <path
         style="fill:#6faace;stroke-width:0.25399998"
         d="m 116.88225,180.46375 c -0.85858,-0.97091 -1.36116,-1.92279 -1.36116,-2.57803 0,-1.0097 -0.45488,-1.92284 -1.07538,-2.15876 -0.31707,-0.12054 -1.11217,-0.79186 -1.76689,-1.49181 l -1.19041,-1.27264 0.0506,-1.85832 c 0.0473,-1.73772 0.0905,-1.86774 0.66511,-2.00339 0.55827,-0.1318 0.65108,-0.36535 1.01362,-2.55081 0.48676,-2.93429 0.97288,-3.7709 3.33446,-5.73863 2.31757,-1.93106 2.64997,-2.09139 5.06617,-2.44355 2.66711,-0.38874 4.57206,-0.0116 7.05334,1.39653 3.05374,1.73296 4.23848,2.99859 5.16993,5.52291 1.12292,3.04327 1.202,4.64584 0.35259,7.14543 -0.46386,1.36501 -0.62629,2.24075 -0.51205,2.76085 0.10075,0.45872 0.064,0.76172 -0.0924,0.76172 -0.14284,0 -0.92345,0.61146 -1.73469,1.35878 -1.92353,1.77201 -2.33623,1.97249 -4.90397,2.38232 -1.18745,0.18952 -2.56748,0.4092 -3.06673,0.48818 -0.71568,0.11322 -1.20369,-0.0234 -2.30654,-0.64584 -1.28638,-0.72598 -2.46257,-0.99693 -2.81178,-0.64772 -0.078,0.0779 -0.0129,0.48313 0.14466,0.90043 0.23306,0.61742 0.21609,0.80316 -0.0911,0.99739 -0.63774,0.40322 -1.40754,0.27407 -1.93734,-0.32504 z M 95.787694,151.0557 c -7.7802,-2.01079 -13.130263,-6.36191 -15.530932,-12.63109 -0.576671,-1.50593 -0.656519,-2.09509 -0.662378,-4.88735 -0.0064,-3.03877 0.02768,-3.24806 0.793679,-4.87757 1.076904,-2.29089 2.796908,-4.08082 4.884387,-5.08293 1.387091,-0.6659 2.060046,-0.82259 3.930561,-0.91519 1.275704,-0.0632 2.876926,0.0223 3.683,0.19662 2.095017,0.45301 5.283756,2.09382 6.945465,3.57389 2.678324,2.38555 5.098714,6.72575 5.925164,10.62489 0.41913,1.97744 0.47521,5.99743 0.1105,7.92054 -0.57141,3.01306 -2.48902,5.83637 -4.30717,6.34147 -1.3477,0.37441 -3.724332,0.266 -5.772276,-0.26328 z"
         id="path90"
         inkscape:connector-curvature="0" />
      <path
         style="fill:#5aa1c9;stroke-width:0.25399998"
         d="m 121.87109,179.14789 c -0.76835,-0.32808 -2.06867,-0.74486 -2.8896,-0.92618 -1.34621,-0.29733 -1.52366,-0.28719 -1.80923,0.10335 -0.52693,0.72063 -1.1029,0.24343 -1.27796,-1.0588 -0.28567,-2.12499 -0.43656,-2.37914 -1.61996,-2.72856 -0.60143,-0.17758 -1.36706,-0.57985 -1.70139,-0.89393 -0.97108,-0.91229 -0.70304,-2.51452 0.42067,-2.51452 0.35175,0 0.44418,-0.41749 0.57638,-2.6035 0.24949,-4.1252 0.67308,-5.04069 3.39852,-7.34514 2.38237,-2.01436 3.33023,-2.37035 6.31131,-2.37035 2.44674,0 2.63295,0.0401 4.52502,0.97453 1.23235,0.60862 2.48085,1.48213 3.3251,2.32637 1.17463,1.17464 1.45547,1.66292 2.14248,3.72509 0.43486,1.30529 0.79066,2.90386 0.79066,3.55238 0,1.63293 -0.83393,4.15727 -1.88816,5.71552 -1.47016,2.17303 -2.79061,3.06614 -5.77758,3.90777 -1.4417,0.40622 -2.73556,0.73721 -2.87526,0.73553 -0.1397,-0.002 -0.88265,-0.27149 -1.651,-0.59956 z M 94.2806,149.16055 c -2.925694,-0.63635 -7.225492,-2.99199 -9.144228,-5.00966 -3.141112,-3.30306 -4.798848,-8.02718 -4.176736,-11.90262 0.893925,-5.56869 5.540093,-8.90995 11.262121,-8.09907 6.909179,0.9791 12.606643,8.21798 12.626923,16.04306 0.0118,4.56307 -1.93842,8.29669 -4.74012,9.07468 -1.291545,0.35864 -3.909653,0.31085 -5.82796,-0.10639 z"
         id="path88"
         inkscape:connector-curvature="0" />
      <path
         style="fill:#4b99c5;stroke-width:0.25399998"
         d="m 121.23609,178.57465 c -1.1176,-0.34631 -2.66065,-0.9002 -3.429,-1.23086 -1.25294,-0.5392 -1.40435,-0.68763 -1.46827,-1.43937 -0.14659,-1.72387 -1.44022,-3.01571 -2.4017,-2.39836 -0.35171,0.22583 -0.55076,0.17336 -0.98333,-0.25921 -0.69641,-0.69642 -0.43255,-1.13006 0.5661,-0.93034 l 0.7731,0.15463 -0.21145,-1.24244 c -0.1163,-0.68335 -0.20277,-1.8711 -0.19216,-2.63945 0.0491,-3.5523 0.65339,-4.84572 3.30324,-7.0698 2.14713,-1.80213 3.73546,-2.41294 6.32947,-2.43404 1.82464,-0.0148 2.22695,0.0763 3.94237,0.89353 3.82064,1.82008 5.7862,4.75232 6.02711,8.99131 0.0924,1.62503 0.0128,2.30067 -0.39711,3.37343 -1.34535,3.5207 -3.36466,5.31953 -7.08997,6.31587 -1.22562,0.32779 -2.3427,0.58446 -2.4824,0.57037 -0.1397,-0.0141 -1.1684,-0.30896 -2.286,-0.65527 z M 93.256851,147.5311 c -4.056606,-0.9973 -7.868481,-4.05153 -9.79309,-7.84662 l -1.089675,-2.14871 v -2.95176 c 0,-2.72987 0.05433,-3.06238 0.722696,-4.42352 2.948183,-6.00398 11.251789,-6.37981 16.450617,-0.74456 3.204351,3.47334 4.774501,9.07143 3.688321,13.15004 -0.46236,1.73618 -0.80198,2.34136 -2.02931,3.61606 -1.750616,1.81821 -4.289056,2.24899 -7.949559,1.34907 z"
         id="path86"
         inkscape:connector-curvature="0" />
      <path
         style="fill:#3c92c0;stroke-width:0.25399998"
         d="m 120.79482,178.08655 c -2.78045,-0.87804 -3.68263,-1.46738 -4.03213,-2.63392 -0.1589,-0.53036 -0.66593,-1.38807 -1.12672,-1.90602 -2.09969,-2.3601 -1.94071,-8.0945 0.28802,-10.38935 1.64125,-1.68995 3.41011,-2.93122 4.73979,-3.32609 4.33377,-1.28699 9.33372,0.77362 11.27011,4.6447 1.58242,3.16345 1.72749,6.02766 0.43873,8.66178 -1.36323,2.78635 -3.51039,4.52509 -6.44097,5.21579 -2.15512,0.50793 -2.78728,0.47509 -5.13683,-0.26689 z M 92.039357,145.85788 c -2.73098,-0.96358 -5.28734,-2.94202 -6.7566,-5.22913 -3.447065,-5.36583 -1.808744,-11.82217 3.404585,-13.41686 2.068571,-0.63275 2.876233,-0.65838 4.817126,-0.15284 2.178382,0.56739 3.336165,1.25422 5.052179,2.99708 4.985263,5.06327 5.026903,13.57205 0.07779,15.89841 -1.626205,0.7644 -4.264246,0.72574 -6.595083,-0.0967 z"
         id="path84"
         inkscape:connector-curvature="0" />
      <path
         style="fill:#2c8cb5;stroke-width:0.25399998"
         d="m 121.10909,177.77885 c -2.50355,-0.83912 -3.50538,-1.48907 -4.08853,-2.65251 -0.29665,-0.59185 -0.81071,-1.36619 -1.14237,-1.72076 -1.63316,-1.746 -1.79241,-6.91685 -0.28376,-9.21372 0.80642,-1.22775 2.60935,-2.75302 4.15173,-3.51233 1.4425,-0.71014 1.87886,-0.80247 3.79239,-0.80247 2.00517,0 2.30216,0.071 4.08601,0.9764 3.40147,1.7265 4.99033,4.37438 5.0229,8.37079 0.016,1.96278 -0.076,2.48784 -0.65071,3.71349 -1.47167,3.13863 -4.18358,4.98976 -7.61249,5.19624 -1.3913,0.0838 -2.24031,-0.008 -3.27517,-0.35513 z M 92.040473,144.09409 c -5.401661,-2.26871 -8.036705,-6.77863 -6.585677,-11.27147 1.56179,-4.83581 7.675621,-5.90085 11.869674,-2.06772 3.55281,3.24707 4.50742,8.54085 2.135696,11.84342 -0.980649,1.36553 -2.180034,1.94187 -4.25908,2.04662 -1.316284,0.0663 -1.957052,-0.0454 -3.160613,-0.55085 z"
         id="path82"
         inkscape:connector-curvature="0" />
      <path
         style="fill:#0f8397;stroke-width:0.25399998"
         d="m 120.72809,176.94082 c -1.83179,-0.62671 -3.02958,-1.48911 -3.59201,-2.5862 -0.22906,-0.4468 -0.67158,-1.11817 -0.9834,-1.49193 -0.84832,-1.01686 -1.24979,-3.52578 -0.88958,-5.55941 0.52403,-2.95855 2.47369,-5.18744 5.5552,-6.35082 3.80761,-1.4375 8.52306,0.51324 10.37972,4.29402 0.62916,1.28118 0.70607,1.71442 0.70607,3.97777 0,2.33372 -0.0604,2.64909 -0.74418,3.88326 -2.07296,3.74174 -6.23227,5.27013 -10.43182,3.83331 z M 93.1165,141.67943 c -1.419133,-0.45076 -3.569119,-1.88728 -4.267466,-2.85131 -2.125856,-2.93466 -1.080615,-6.73817 2.086046,-7.59086 3.423376,-0.92182 7.109196,2.2867 7.164799,6.237 0.02367,1.68102 -0.508628,2.89439 -1.628793,3.71288 -0.758734,0.5544 -2.400506,0.79533 -3.354586,0.49229 z"
         id="path80"
         inkscape:connector-curvature="0" />
      <path
         style="fill:#017d85;stroke-width:0.25399998"
         d="m 120.94478,176.24886 c -1.82221,-0.62976 -2.94099,-1.6548 -4.04469,-3.70577 -0.82935,-1.54115 -0.94991,-1.98538 -0.96504,-3.556 -0.0416,-4.31651 3.2088,-7.58137 7.58704,-7.62081 3.1808,-0.0287 5.60385,1.45797 7.00057,4.29512 1.59381,3.23748 0.8684,7.02171 -1.78431,9.30826 -1.9768,1.70393 -5.08735,2.21448 -7.79357,1.2792 z"
         id="path78"
         inkscape:connector-curvature="0" />
      <path
         style="fill:#00695d;stroke-width:0.25399998"
         d="m 122.25209,175.46292 c -3.05095,-0.74604 -5.22514,-3.50282 -5.19586,-6.5881 0.0445,-4.68369 4.99341,-7.77493 9.25986,-5.78394 3.37297,1.57404 4.86191,5.74775 3.20741,8.99083 -1.32013,2.58768 -4.48955,4.06146 -7.27141,3.38121 z"
         id="path76"
         inkscape:connector-curvature="0" />
      <path
         style="fill:#004837;stroke-width:0.25399998"
         d="m 121.9686,172.93969 c -3.83327,-1.77876 -3.24921,-7.28533 0.85499,-8.06096 1.45778,-0.2755 2.63351,0.11769 3.77992,1.2641 1.69416,1.69417 1.81241,3.91427 0.30021,5.63656 -0.97297,1.10816 -1.31152,1.29164 -2.74663,1.48858 -0.84604,0.1161 -1.41463,0.0308 -2.18849,-0.32828 z"
         id="path74"
         inkscape:connector-curvature="0" />
    </g>
    <flowRoot
       xml:space="preserve"
       id="flowRoot928"
       style="font-style:normal;font-weight:normal;font-size:40px;line-height:1.25;font-family:sans-serif;letter-spacing:0px;word-spacing:0px;opacity:0.6;fill:#333333;fill-opacity:1;stroke:none"
       transform="matrix(0.26458333,0,0,0.26458333,26.801264,-59.283072)"><flowRegion
         id="flowRegion930"
         style="fill:#333333"><rect
           id="rect932"
           width="408.57144"
           height="101.42857"
           x="148.57143"
           y="773.94824"
           style="fill:#333333" /></flowRegion><flowPara
         id="flowPara934"
         style="font-style:normal;font-variant:normal;font-weight:500;font-stretch:normal;font-size:85.33333588px;font-family:'Fira Sans';-inkscape-font-specification:'Fira Sans, Medium';font-variant-ligatures:normal;font-variant-caps:normal;font-variant-numeric:normal;font-feature-settings:normal;text-align:start;writing-mode:lr-tb;text-anchor:start;fill:#333333">CASTRO</flowPara></flowRoot>  </g>
</svg>
