<?xml version="1.0" encoding="UTF-8" standalone="no"?>
<!-- Created with Inkscape (http://www.inkscape.org/) -->

<svg
   xmlns:dc="http://purl.org/dc/elements/1.1/"
   xmlns:cc="http://creativecommons.org/ns#"
   xmlns:rdf="http://www.w3.org/1999/02/22-rdf-syntax-ns#"
   xmlns:svg="http://www.w3.org/2000/svg"
   xmlns="http://www.w3.org/2000/svg"
   xmlns:sodipodi="http://sodipodi.sourceforge.net/DTD/sodipodi-0.dtd"
   xmlns:inkscape="http://www.inkscape.org/namespaces/inkscape"
   width="108.77233mm"
   height="108.77233mm"
   viewBox="0 0 108.77233 108.77233"
   version="1.1"
   id="svg8"
   inkscape:version="0.92.4 (unknown)"
   sodipodi:docname="castro_logo_RdPu.svg">
  <defs
     id="defs2" />
  <sodipodi:namedview
     id="base"
     pagecolor="#ffffff"
     bordercolor="#666666"
     borderopacity="1.0"
     inkscape:pageopacity="0.0"
     inkscape:pageshadow="2"
     inkscape:zoom="1.4"
     inkscape:cx="84.839717"
     inkscape:cy="222.12683"
     inkscape:document-units="mm"
     inkscape:current-layer="layer1"
     showgrid="false"
     inkscape:window-width="1920"
     inkscape:window-height="983"
     inkscape:window-x="0"
     inkscape:window-y="27"
     inkscape:window-maximized="1" />
  <metadata
     id="metadata5">
    <rdf:RDF>
      <cc:Work
         rdf:about="">
        <dc:format>image/svg+xml</dc:format>
        <dc:type
           rdf:resource="http://purl.org/dc/dcmitype/StillImage" />
        <dc:title></dc:title>
      </cc:Work>
    </rdf:RDF>
  </metadata>
  <g
     inkscape:label="Layer 1"
     inkscape:groupmode="layer"
     id="layer1"
     transform="translate(-28.201634,-101.85587)">
    <circle
       style="opacity:0.8;fill:#ffffff;fill-opacity:1;stroke:#202020;stroke-width:0.91460222;stroke-miterlimit:4;stroke-dasharray:none;stroke-opacity:0.50196078"
       id="path121"
       cx="82.587799"
       cy="156.24203"
       r="53.928864"
       inkscape:export-xdpi="96"
       inkscape:export-ydpi="96" />
    <g
       id="g72">
      <path
         style="fill:#fce9e5;stroke-width:0.25399998"
         d="m 101.3203,191.56716 c 0,-0.12981 -0.53477,-0.59692 -1.18838,-1.03804 -1.031815,-0.69636 -1.33073,-0.78068 -2.268818,-0.64001 -1.435712,0.2153 -3.048701,-0.60078 -4.94965,-2.50423 -1.017658,-1.019 -1.614779,-1.42372 -2.100547,-1.42372 -1.131951,0 -3.548311,-1.75686 -3.842819,-2.794 -0.173678,-0.61162 -0.681177,-1.87196 -2.032785,-5.04826 -0.34925,-0.82074 -0.635,-1.7397 -0.635,-2.04212 0,-0.30242 -0.236471,-1.01338 -0.525493,-1.57991 -0.496644,-0.9735 -0.501691,-1.05635 -0.09194,-1.50911 0.354078,-0.39126 0.374863,-0.54978 0.113393,-0.86483 -0.176086,-0.21218 -0.453355,-0.38577 -0.616151,-0.38577 -0.536255,0 -1.947911,-1.37615 -2.642392,-2.57592 -0.375326,-0.64841 -1.596812,-2.33034 -2.714412,-3.73762 -1.1176,-1.40729 -3.00355,-3.94234 -4.191,-5.63344 -2.910657,-4.14522 -4.256405,-5.35077 -7.495822,-6.71497 -0.700052,-0.29481 -1.957352,-0.94524 -2.794,-1.44541 -0.836648,-0.50016 -2.092678,-1.23011 -2.791178,-1.62211 -1.227727,-0.68898 -4.579976,-3.98856 -5.829266,-5.73766 -0.705049,-0.98713 -2.708508,-4.42621 -3.009855,-5.16664 -0.112544,-0.27653 -0.37493,-0.69096 -0.583081,-0.92097 -0.536743,-0.59309 -1.626798,-6.77159 -1.626798,-9.22079 0,-2.71575 0.954102,-6.05097 2.150228,-7.51646 0.171033,-0.20955 0.500877,-0.87091 0.732987,-1.46968 0.232109,-0.59878 0.849915,-1.4554 1.372901,-1.90362 0.522986,-0.44821 1.350934,-1.23099 1.839884,-1.7395 1.282677,-1.334 1.715846,-1.48501 4.759312,-1.65914 2.304977,-0.13188 3.122311,-0.068 5.149756,0.40279 3.299999,0.76621 5.293782,1.506 6.341303,2.35293 0.485857,0.39282 0.977956,0.71422 1.093557,0.71422 0.330294,0 4.190906,2.51529 6.138268,3.99924 1.738851,1.32506 2.544973,2.39072 3.699632,4.89076 0.290345,0.62865 0.697403,1.42875 0.904573,1.778 2.16079,3.6427 3.676777,8.44047 4.030639,12.75609 0.08844,1.0786 0.32655,2.50735 0.529133,3.175 0.20258,0.66765 0.369565,1.75683 0.371079,2.4204 0.0015,0.66358 0.08222,1.2065 0.179349,1.2065 0.09713,0 0.484198,-0.29469 0.860151,-0.65488 l 0.683547,-0.65488 0.981352,0.49184 c 0.539742,0.27051 1.295674,0.56739 1.679849,0.65972 0.39975,0.0961 0.6985,0.3411 0.6985,0.57287 0,0.45474 0.363055,0.41688 2.921,-0.30462 1.231301,-0.3473 1.726761,-0.37617 2.579718,-0.15029 0.591386,0.15661 1.771926,0.21269 2.684116,0.12751 1.33954,-0.12509 1.8487,-0.0546 2.87024,0.39725 0.683,0.30212 1.53255,0.87735 1.88787,1.27828 0.78779,0.88889 2.90763,2.041 5.96816,3.24363 3.25034,1.27722 7.53081,3.44506 9.1189,4.61825 2.97727,2.19943 5.51954,5.9268 6.98356,10.23902 1.61594,4.75966 1.66194,7.76781 0.174,11.38055 -0.48855,1.18621 -0.89036,2.27807 -0.89291,2.42636 -0.003,0.14828 -0.25048,0.53346 -0.55093,0.85597 -0.4851,0.52068 -0.69941,0.56837 -1.91335,0.42569 -1.25759,-0.1478 -1.41465,-0.10697 -1.96132,0.50992 -1.15735,1.306 -1.55808,1.67167 -2.45406,2.23936 -0.4983,0.31572 -1.22414,0.65389 -1.61298,0.75148 -0.38883,0.0976 -1.0176,0.40709 -1.39725,0.68778 -0.42224,0.31218 -1.27535,0.56647 -2.19702,0.65487 -1.13252,0.10862 -1.65123,0.2945 -2.08852,0.74842 -0.68409,0.7101 -0.78356,0.72481 -1.50136,0.22204 -0.42162,-0.29531 -1.1569,-0.36425 -3.2441,-0.30417 l -2.69892,0.0777 -1.33613,1.44718 c -1.2599,1.3646 -1.40411,1.44717 -2.52742,1.44717 -0.65521,0 -1.19129,-0.1062 -1.19129,-0.236 z m 0.61423,-1.18818 c 0.57002,-0.21874 0.49753,-0.76595 -0.16275,-1.22842 -0.95291,-0.66745 -1.42028,-0.51599 -1.32716,0.4301 0.0447,0.45402 0.0885,0.85407 0.0975,0.889 0.0316,0.12397 0.99687,0.0611 1.39244,-0.0907 z"
         id="path102"
         inkscape:connector-curvature="0" />
      <path
         style="fill:#fbe1dd;stroke-width:0.25399998"
         d="m 95.859301,189.00621 c -0.4191,-0.12865 -1.501648,-0.98071 -2.405662,-1.89348 -0.904014,-0.91276 -1.842536,-1.65957 -2.085607,-1.65957 -0.243067,0 -0.646419,-0.20581 -0.896335,-0.45736 -0.249918,-0.25154 -0.773925,-0.65764 -1.164463,-0.90243 -0.390535,-0.24479 -0.842163,-0.75336 -1.003615,-1.13014 -0.161453,-0.37679 -0.499285,-0.98866 -0.750738,-1.35971 -1.172761,-1.73055 -2.199005,-3.82656 -2.364034,-4.82833 -0.09976,-0.60556 -0.34165,-1.4903 -0.537532,-1.96609 -0.318537,-0.77369 -0.309718,-0.91636 0.08349,-1.35086 0.39454,-0.43596 0.401421,-0.55346 0.06707,-1.14539 -0.204917,-0.36278 -0.719554,-0.7836 -1.14364,-0.93514 -1.128157,-0.40316 -1.657157,-0.87499 -2.729522,-2.43455 -0.528325,-0.76835 -1.499875,-2.0965 -2.159,-2.95144 -0.659128,-0.85494 -1.655613,-2.21516 -2.214413,-3.0227 -1.789615,-2.58626 -4.22182,-5.81119 -5.043945,-6.68791 -0.975784,-1.04059 -3.412873,-2.73287 -4.684938,-3.25316 -0.516514,-0.21126 -2.293765,-1.14589 -3.949449,-2.07695 -2.439637,-1.37191 -3.412409,-2.10214 -5.131229,-3.85184 -2.291733,-2.3329 -2.850231,-3.07964 -4.529671,-6.05638 -1.622597,-2.87598 -2.341579,-4.92163 -2.82603,-8.04062 -0.573578,-3.69279 -0.390051,-5.62038 0.820211,-8.61474 1.903622,-4.70982 5.391146,-8.04382 8.795602,-8.4084 0.898071,-0.0962 1.960139,-0.10662 2.360153,-0.0232 0.400012,0.0834 1.813146,0.26873 3.140296,0.41182 3.030761,0.32678 5.503067,1.07504 7.052559,2.13452 0.661342,0.4522 1.929564,1.20779 2.818272,1.67909 1.620022,0.85914 5.36701,4.1059 5.371635,4.65453 0.0013,0.16082 0.401404,0.79427 0.889,1.40765 0.487594,0.61339 0.886534,1.2306 0.886534,1.37159 0,0.14098 0.432257,1.01072 0.96057,1.93275 0.528314,0.92203 1.269014,2.39314 1.645998,3.26913 0.974141,2.26358 2.219432,7.28692 2.219432,8.95291 0,0.77695 0.17145,2.07088 0.381,2.8754 0.20955,0.80452 0.381,2.01933 0.381,2.69959 0,1.80502 0.160533,2.08069 1.108969,1.90431 0.910321,-0.16928 2.523937,0.41181 3.405627,1.22642 0.557357,0.51496 0.655259,0.52194 2.794,0.19927 1.219022,-0.18392 3.199783,-0.42203 4.401688,-0.52915 1.201906,-0.10712 2.443706,-0.33306 2.759546,-0.50209 1.19209,-0.63799 2.6111,-0.11918 4.85281,1.77425 1.45905,1.23237 2.51372,1.89971 3.5616,2.25359 1.59674,0.53922 7.83339,4.55174 9.46737,6.09108 0.54044,0.50914 1.42323,1.47505 1.96175,2.14647 0.83603,1.04235 0.93506,1.29133 0.67756,1.70364 -0.24995,0.40025 -0.16242,0.77816 0.51148,2.20824 0.86613,1.83802 1.46495,5.35451 1.41014,8.28091 -0.0307,1.64125 -1.14253,4.30211 -2.33291,5.58337 -0.8256,0.88862 -2.7401,2.12265 -3.63643,2.34393 -0.99312,0.24518 -1.44893,0.87855 -1.93896,2.69432 -0.37955,1.40636 -0.55209,1.67595 -1.32188,2.0654 -0.62835,0.31789 -1.25402,0.41328 -2.15536,0.32861 -2.24413,-0.21081 -7.34013,0.27642 -8.56694,0.81909 -0.9003,0.39825 -1.49609,0.4702 -3.06166,0.36972 -1.50012,-0.0963 -2.151621,-0.0261 -2.854094,0.30721 -1.16033,0.55061 -2.329518,0.6899 -3.297306,0.39284 z m 29.908499,-8.29035 c -0.17462,-0.0721 -0.3175,-0.39956 -0.3175,-0.72775 0,-0.77827 0.90966,-1.10015 1.48452,-0.52529 0.6867,0.6867 -0.209,1.64843 -1.16702,1.25304 z"
         id="path100"
         inkscape:connector-curvature="0" />
      <path
         style="fill:#fbd9d5;stroke-width:0.25399998"
         d="m 96.907051,188.55253 c -0.06888,-0.11144 -0.02502,-0.36478 0.09748,-0.56298 0.392494,-0.63507 -0.240929,-1.01239 -1.699537,-1.01239 -1.312778,0 -1.448945,-0.0642 -2.752494,-1.29701 -0.754265,-0.71335 -1.742816,-1.48487 -2.196782,-1.7145 -0.861756,-0.43588 -2.814914,-2.90102 -3.852621,-4.86249 -0.332585,-0.62865 -0.805836,-1.97637 -1.051667,-2.99494 -0.412064,-1.70733 -0.414881,-1.88739 -0.03605,-2.306 0.226004,-0.24973 0.410919,-0.57609 0.410919,-0.72525 0,-0.39663 -1.549596,-1.69157 -2.490729,-2.0814 -0.541279,-0.22421 -1.108167,-0.8237 -1.699697,-1.79746 -0.488152,-0.80359 -1.077935,-1.61831 -1.31063,-1.81051 -0.232697,-0.19219 -0.690679,-0.95351 -1.01774,-1.69182 -0.597502,-1.34881 -4.20105,-5.89726 -7.059904,-8.9111 -1.721622,-1.81496 -3.951135,-3.39821 -5.82595,-4.13719 -0.690166,-0.27204 -1.549933,-0.69992 -1.910598,-0.95085 -0.360662,-0.25093 -1.455852,-0.89484 -2.433752,-1.4309 -2.181103,-1.19565 -5.618353,-4.45491 -7.089687,-6.72258 -2.574145,-3.96735 -4.016393,-7.99747 -4.371332,-12.21494 -0.373357,-4.4363 1.47207,-9.21713 4.765236,-12.34498 1.435486,-1.36342 4.064757,-2.43732 6.028157,-2.46212 4.33736,-0.0548 8.663889,0.88181 11.273955,2.44061 4.888552,2.91956 6.480375,4.35459 8.97111,8.08747 3.302878,4.95004 4.979733,9.82408 5.67456,16.49396 0.138255,1.32715 0.317467,2.8702 0.398247,3.429 0.08078,0.5588 0.209062,1.51285 0.285067,2.12009 0.118491,0.94672 0.209999,1.08531 0.641985,0.97235 0.790173,-0.20664 3.013702,1.28781 3.013702,2.02553 0,0.76456 0.837235,0.81113 1.352672,0.0752 0.333779,-0.47653 0.770133,-0.54391 5.030902,-0.77686 8.896377,-0.48638 8.075547,-0.50736 8.690847,0.22207 1.03899,1.23169 1.82655,1.79437 4.3067,3.07692 3.35114,1.73297 5.87395,3.45857 6.84042,4.67883 2.06857,2.61179 3.33009,4.47003 4.43227,6.52883 0.83795,1.56524 1.05429,2.26742 1.21302,3.937 0.26327,2.76921 0.25913,3.03288 -0.0814,5.18 -0.36704,2.3139 -1.03342,3.87249 -1.92465,4.50154 -3.09863,2.18706 -4.18255,3.19218 -4.58834,4.2547 -0.23414,0.61311 -0.7626,1.36381 -1.17433,1.66822 -0.66065,0.48843 -0.949,0.53406 -2.45384,0.38826 -1.25322,-0.12142 -2.00819,-0.0589 -2.84822,0.23584 -0.62865,0.22057 -1.42875,0.40437 -1.778,0.40844 -0.34925,0.004 -1.11994,0.17633 -1.71264,0.38281 -0.5927,0.20647 -2.5358,0.53961 -4.318,0.74031 -1.7822,0.2007 -3.740507,0.54445 -4.351796,0.76389 -1.296216,0.46532 -1.235835,0.45684 -1.396815,0.19636 z"
         id="path98"
         inkscape:connector-curvature="0" />
      <path
         style="fill:#fac9c5;stroke-width:0.25399998"
         d="m 98.653301,186.42252 c -1.338135,-0.70855 -1.742694,-0.80138 -3.317179,-0.76116 -1.773253,0.0453 -1.808531,0.0332 -3.175,-1.08749 -0.760001,-0.62332 -1.806639,-1.50914 -2.32586,-1.9685 -0.926336,-0.81955 -1.205207,-1.54328 -0.712094,-1.84804 0.136875,-0.0846 -0.261247,-0.66392 -0.88472,-1.28739 -1.493094,-1.49309 -1.821986,-2.02968 -2.152749,-3.51219 -0.235626,-1.05609 -0.214371,-1.30934 0.143029,-1.70427 0.822379,-0.90871 0.03339,-1.97428 -2.624927,-3.54507 -0.92916,-0.54904 -1.081298,-1.23791 -0.3175,-1.43765 0.2794,-0.0731 0.505686,-0.20524 0.502859,-0.29372 -0.01003,-0.3143 -7.424621,-8.83517 -9.723422,-11.17421 -2.680795,-2.72771 -3.982189,-3.66373 -8.051437,-5.79098 -1.60655,-0.83985 -3.7211,-2.04383 -4.699,-2.67553 -3.938534,-2.54418 -7.43148,-7.43712 -9.182685,-12.86315 -0.529543,-1.64076 -0.744554,-7.23843 -0.355171,-9.24664 0.978512,-5.04662 5.103153,-9.29358 9.684599,-9.97179 1.328121,-0.19661 5.620591,0.24553 7.401451,0.76237 1.867307,0.54193 5.905688,2.59594 7.376269,3.75173 3.01735,2.37145 5.921452,6.09764 7.571133,9.71434 1.687005,3.69854 3.028686,9.56427 3.030688,13.24995 5.08e-4,0.72433 0.12718,1.63873 0.281747,2.032 0.154569,0.39327 0.378792,1.55419 0.498279,2.57983 0.306837,2.63384 0.404218,2.86558 1.127798,2.68398 0.487706,-0.12241 0.841487,0.0954 1.856085,1.14249 1.345164,1.3883 1.876725,1.54263 3.112447,0.90361 1.696075,-0.87707 5.021339,-1.32843 8.881969,-1.20559 3.50713,0.1116 3.72876,0.15035 4.89677,0.8563 0.67286,0.40668 1.31609,0.73941 1.4294,0.73941 0.11331,0 0.33271,0.15266 0.48756,0.33924 0.15485,0.18658 0.76892,0.59106 1.3646,0.89884 1.14275,0.59045 7.69904,6.81156 9.00108,8.54092 0.9,1.19537 2.21057,3.74681 2.47448,4.81736 0.16008,0.64938 0.0742,0.84434 -0.622,1.41258 -0.74458,0.60769 -0.8242,0.82289 -1.01882,2.75339 -0.29194,2.89591 -0.80455,3.71473 -5.03002,8.03467 -0.68322,0.6985 -1.59483,1.53153 -2.0258,1.85117 -1.03688,0.76906 -3.43294,1.58459 -3.86714,1.31624 -0.43132,-0.26657 -1.64153,0.33418 -2.70443,1.34248 -0.69597,0.66023 -1.09434,0.80157 -2.794,0.99127 -1.09026,0.12169 -2.43949,0.27636 -2.99829,0.3437 -0.80348,0.0968 -1.334772,-0.0463 -2.539999,-0.6845 z"
         id="path96"
         inkscape:connector-curvature="0" />
      <path
         style="fill:#fac1be;stroke-width:0.25399998"
         d="m 100.3043,185.813 c -0.349249,-0.19379 -0.934795,-0.35404 -1.301211,-0.3561 -0.838756,-0.005 -2.90387,-0.90682 -3.546101,-1.54905 -0.551066,-0.55107 -0.791365,-0.58239 -1.940281,-0.25288 -0.66262,0.19003 -0.935723,0.13903 -1.458823,-0.27244 -0.35397,-0.27843 -0.646763,-0.75512 -0.650649,-1.05931 -0.0096,-0.74773 -1.202579,-2.27381 -2.629048,-3.363 -0.644718,-0.49228 -1.344041,-1.22733 -1.55405,-1.63344 -0.437645,-0.84631 -0.501175,-1.92988 -0.126718,-2.16131 0.365953,-0.22617 0.127807,-2.49633 -0.275989,-2.63093 -0.183896,-0.0613 -0.797357,-0.54868 -1.363244,-1.08307 l -1.028885,-0.97161 0.9525,-0.006 c 1.26919,-0.008 1.24065,-0.42853 -0.162174,-2.38709 -1.256203,-1.75385 -10.706115,-11.14467 -12.867546,-12.78708 -0.775073,-0.58896 -3.003923,-1.91144 -4.953,-2.93885 -4.643712,-2.44782 -6.843685,-3.88611 -8.489,-5.54988 -7.951747,-8.04098 -9.088981,-19.45883 -2.57239,-25.82682 2.365228,-2.31129 5.402806,-3.21066 9.53276,-2.82246 2.751739,0.25865 3.71956,0.51835 6.11285,1.64028 4.120436,1.93158 6.915262,4.33953 9.379036,8.08073 3.142793,4.77228 4.382021,8.92421 5.204984,17.43883 0.141775,1.46685 0.427083,3.52425 0.634014,4.572 0.206934,1.04775 0.382255,2.37172 0.389603,2.94216 0.01638,1.27205 0.170912,1.44968 0.867976,0.99775 0.489438,-0.31732 0.620942,-0.281 1.347089,0.37205 0.442585,0.39804 0.926864,0.95197 1.076176,1.23096 0.188041,0.35136 0.43661,0.46407 0.808797,0.36674 0.316806,-0.0828 0.627926,0.005 0.758093,0.21341 0.180117,0.28875 0.303954,0.29478 0.672501,0.0328 1.431572,-1.01779 2.067389,-1.34202 2.864731,-1.46084 0.48895,-0.0729 1.40335,-0.24753 2.032,-0.38815 1.554991,-0.34783 6.418109,-0.24261 8.112699,0.17553 1.40019,0.3455 1.6968,0.55773 4.4603,3.19152 1.57251,1.4987 2.50232,2.24274 5.02507,4.02109 2.99022,2.10787 4.75393,4.06617 4.75393,5.2784 v 0.64116 l -0.67567,-0.61577 c -0.59161,-0.53917 -0.64864,-0.55258 -0.45838,-0.10778 0.28927,0.67628 0.46327,5.99936 0.24391,7.46213 -0.12708,0.84744 -0.39836,1.37089 -1.00889,1.94669 -0.45929,0.43317 -1.00937,1.12228 -1.2224,1.53138 -0.33994,0.6528 -4.32608,4.50682 -5.20819,5.03555 -0.18075,0.10834 -0.4806,0.0709 -0.66633,-0.0833 -0.25587,-0.21236 -0.72065,-0.0638 -1.91827,0.61313 -0.86932,0.49137 -1.7156,0.8934 -1.88062,0.8934 -0.16502,0 -0.61197,0.35548 -0.99322,0.78996 -0.60563,0.6902 -0.80436,0.76911 -1.57348,0.62482 -0.58204,-0.10919 -1.13661,-0.0326 -1.63677,0.22604 -0.91354,0.47241 -2.20487,0.46779 -3.06769,-0.011 z"
         id="path94"
         inkscape:connector-curvature="0" />
      <path
         style="fill:#f9b7ba;stroke-width:0.25399998"
         d="m 100.6853,185.07431 c -0.1397,-0.0466 -1.074843,-0.32425 -2.078097,-0.61697 -1.499428,-0.4375 -1.838501,-0.63359 -1.905,-1.10171 -0.07025,-0.4945 -0.231384,-0.56882 -1.223902,-0.56458 -0.62865,0.003 -1.406921,0.0983 -1.729491,0.21238 -0.499395,0.17667 -0.744581,0.0265 -1.651,-1.01106 -0.58548,-0.67019 -1.649075,-1.85161 -2.363546,-2.62537 -1.749369,-1.89454 -2.020126,-2.44087 -1.599342,-3.22711 0.278356,-0.52011 0.262933,-0.72473 -0.101071,-1.34094 -0.236253,-0.39994 -0.42955,-0.97646 -0.42955,-1.28116 0,-0.31387 -0.385313,-0.89511 -0.889,-1.34104 -1.006876,-0.89142 -1.109094,-1.20159 -0.395991,-1.20159 0.271155,0 0.550324,-0.0927 0.620377,-0.20608 0.07005,-0.11335 -0.247581,-1.17062 -0.705853,-2.3495 -0.458269,-1.17888 -1.024329,-2.66458 -1.257907,-3.30154 -0.362961,-0.98979 -0.710456,-1.34887 -2.390658,-2.47034 -1.081283,-0.72172 -2.651768,-1.88479 -3.489968,-2.58459 -6.086351,-5.08145 -7.171068,-5.8333 -11.557,-8.01053 -6.944832,-3.44748 -9.930889,-6.14929 -12.667632,-11.46181 -1.45657,-2.82746 -2.064368,-5.40948 -2.064368,-8.76977 0,-4.42688 1.269892,-7.61069 4.086375,-10.24518 4.179217,-3.90917 11.056625,-3.9022 17.764981,0.018 4.544299,2.65558 8.665631,8.57057 10.176236,14.60506 0.779934,3.11565 0.989144,4.70095 1.237381,9.37629 0.183548,3.45697 0.314459,4.36609 0.747448,5.19068 0.42099,0.80175 0.493621,1.26605 0.366817,2.34495 -0.212281,1.80617 0.381487,6.94237 0.802571,6.94237 0.56403,0 0.933145,-0.72027 0.873506,-1.70452 -0.03208,-0.52936 -0.04234,-1.1625 -0.02281,-1.40698 0.05335,-0.66798 1.119576,-0.55297 1.766019,0.1905 0.817159,0.93982 2.343523,0.8923 3.140575,-0.0977 0.819798,-1.01831 2.000812,-1.55295 3.434797,-1.55492 0.789104,-10e-4 1.487888,-0.17968 1.981113,-0.50633 0.91145,-0.60363 1.85368,-0.64239 3.08718,-0.127 0.50152,0.20955 1.14611,0.381 1.43241,0.381 0.94116,0 3.84398,1.31596 4.79974,2.1759 0.51553,0.46385 1.31563,1.0387 1.778,1.27743 0.46237,0.23874 1.46932,0.97149 2.23767,1.62834 0.76835,0.65684 1.89457,1.4672 2.50272,1.8008 0.73042,0.40068 1.27908,0.95206 1.61651,1.62454 0.28094,0.5599 0.77351,1.36875 1.0946,1.79746 0.77505,1.03482 1.05352,2.24205 1.25421,5.43736 l 0.16712,2.66083 -0.73593,0.64117 c -0.40476,0.35264 -1.05148,1.40844 -1.43714,2.34621 -0.56954,1.38489 -1.00762,1.97406 -2.33302,3.13769 -1.35126,1.18635 -1.74277,1.4048 -2.27726,1.27065 -0.48083,-0.12068 -0.88435,0.0212 -1.58213,0.55647 -0.51517,0.39515 -1.22243,0.85549 -1.57168,1.02296 -0.34925,0.16748 -0.80645,0.4061 -1.016,0.53028 -0.86587,0.5131 -2.74914,1.30191 -3.1083,1.30191 -0.21211,0 -0.796,0.17145 -1.29752,0.381 -0.82158,0.34328 -2.42683,0.47647 -3.08718,0.25615 z"
         id="path92"
         inkscape:connector-curvature="0" />
      <path
         style="fill:#f8a7b6;stroke-width:0.25399998"
         d="m 100.3043,184.38633 c -0.488949,-0.13555 -1.069448,-0.40816 -1.289999,-0.60581 -0.220551,-0.19765 -0.514952,-0.35936 -0.654225,-0.35936 -0.139274,0 -0.52167,-0.28575 -0.849775,-0.635 -0.514769,-0.54795 -0.817514,-0.635 -2.208324,-0.635 -1.985744,0 -3.424802,-0.78766 -4.075606,-2.23077 -0.234203,-0.51933 -0.622051,-1.17283 -0.861885,-1.45223 -0.239832,-0.2794 -0.682269,-1.13665 -0.983193,-1.905 -0.300924,-0.76835 -0.700703,-1.56845 -0.888398,-1.778 -0.592123,-0.66107 -1.20235,-2.62533 -1.161961,-3.74025 0.02139,-0.59029 -0.120577,-1.39039 -0.315466,-1.778 -0.526544,-1.04724 -1.415979,-4.56828 -1.674942,-6.63067 -0.309357,-2.46374 0.03911,-7.50919 0.608195,-8.80608 0.432032,-0.98455 0.451513,-0.99635 0.629522,-0.381 0.101031,0.34925 0.263354,2.15382 0.36072,4.01016 0.252654,4.81702 0.688655,5.5135 2.238497,3.57585 1.640855,-2.05144 1.90024,-2.25583 2.668034,-2.10227 0.558935,0.11179 0.97471,-0.0553 1.904675,-0.76537 0.67725,-0.51712 1.481285,-0.90837 1.86673,-0.90837 0.372392,0 1.379375,-0.18199 2.23774,-0.40443 1.583029,-0.41023 3.640471,-0.38627 7.180781,0.0836 1.6026,0.2127 1.88242,0.35617 3.39688,1.74175 0.48895,0.44734 1.2319,0.88624 1.651,0.97533 1.15933,0.24645 3.429,2.50132 3.429,3.40664 0,0.48546 0.29784,1.04585 0.889,1.67266 0.48895,0.51844 0.889,1.10195 0.889,1.29669 0,0.19474 0.32492,0.72953 0.72205,1.18841 1.20273,1.38977 2.03175,3.04889 2.21294,4.42873 0.15909,1.21161 0.1241,1.33963 -0.47304,1.7309 -0.41895,0.2745 -0.70097,0.75044 -0.80508,1.35861 -0.0881,0.51485 -0.52555,1.6219 -0.97205,2.4601 -0.8216,1.54237 -1.68631,2.21264 -3.26225,2.52873 -0.36983,0.0742 -1.15217,0.53568 -1.73853,1.02557 -0.91158,0.7616 -1.25322,0.8907 -2.35707,0.8907 -1.09753,0 -1.3889,0.10857 -1.94447,0.72456 -0.38425,0.42602 -1.38606,0.99179 -2.4315,1.37318 -2.33375,0.85138 -2.87438,0.94001 -3.937,0.64543 z M 79.046586,157.91022 c -0.725292,-0.3377 -1.639692,-0.83674 -2.032,-1.10899 -2.353216,-1.63308 -4.451449,-2.83317 -7.864757,-4.49826 -4.747788,-2.31609 -6.868386,-3.59575 -8.898194,-5.36953 -2.877688,-2.51472 -5.67968,-7.24529 -6.446333,-10.88328 -0.496968,-2.35825 -0.380501,-6.28928 0.245119,-8.27332 0.653694,-2.07306 2.133669,-4.39813 3.596622,-5.65037 3.761773,-3.21993 9.508571,-3.52724 15.168852,-0.81115 3.332208,1.59896 4.730816,2.70213 6.932074,5.46773 4.253751,5.3443 6.257966,12.90508 5.587871,21.07988 -0.304511,3.71487 -0.935233,7.57491 -1.431986,8.76381 -0.801932,1.91929 -2.517834,2.3727 -4.857268,1.28348 z"
         id="path90"
         inkscape:connector-curvature="0" />
      <path
         style="fill:#f790ae;stroke-width:0.25399998"
         d="m 99.321001,182.7587 -1.17046,-1.17046 -2.208741,-0.036 c -2.06772,-0.0337 -2.257785,-0.083 -2.97687,-0.77224 -0.42247,-0.40491 -1.001273,-1.2322 -1.28623,-1.83841 -0.284955,-0.60622 -1.187194,-2.04658 -2.004975,-3.20081 -1.577751,-2.22684 -2.206912,-3.67826 -1.948032,-4.49391 0.08698,-0.27407 -0.07619,-1.48504 -0.362618,-2.69104 -0.557761,-2.34848 -0.680489,-4.56394 -0.266977,-4.8195 0.139588,-0.0863 0.493677,0.24971 0.786866,0.74663 0.519918,0.8812 0.991337,0.99809 0.991337,0.24581 0,-1.14094 2.667904,-4.67557 3.529076,-4.67557 0.124087,0 0.774403,-0.45349 1.445148,-1.00777 0.884205,-0.73066 1.537846,-1.04894 2.377156,-1.15753 0.636691,-0.0824 1.70135,-0.26913 2.365908,-0.415 0.866414,-0.19018 1.692881,-0.18173 2.921001,0.0299 2.06332,0.3555 5.14171,1.25972 5.14171,1.51028 0,0.31872 2.28418,1.80215 2.77495,1.80215 0.56852,0 1.87945,1.94587 2.46123,3.65332 0.26287,0.77148 0.63964,1.31393 1.07661,1.55002 1.16505,0.62947 2.55368,2.00982 2.71382,2.69765 0.23304,1.00089 -0.43353,1.53677 -1.66635,1.33963 -0.89759,-0.14353 -0.99946,-0.1011 -1.14447,0.4767 -0.0876,0.34883 -0.1789,1.18767 -0.20299,1.86407 -0.042,1.17957 -0.0127,1.23538 0.7182,1.36586 0.6761,0.1207 0.77123,0.24898 0.84385,1.13797 0.12854,1.57348 -0.90943,3.26526 -3.04943,4.97022 -0.99543,0.79307 -1.45823,0.97653 -2.83558,1.12403 -1.38676,0.14851 -1.85946,0.3379 -3.00142,1.20256 -1.68083,1.27269 -2.72051,1.73197 -3.92068,1.73197 -0.76748,0 -1.13573,-0.20515 -2.101039,-1.17046 z m 4.270599,-1.22483 c 0.60594,-0.73011 -1.2403,-1.21814 -2.13456,-0.56424 -0.25759,0.18835 -0.38699,0.4741 -0.28755,0.635 0.25699,0.41582 2.06205,0.36309 2.42211,-0.0708 z M 76.301301,154.2334 c -3.723437,-1.37556 -9.09669,-3.70169 -11.049,-4.78321 -3.642124,-2.01762 -6.287038,-4.55099 -8.288584,-7.93903 -1.788286,-3.02705 -2.25445,-4.84953 -2.241434,-8.763 0.0094,-2.82178 0.095,-3.514 0.588724,-4.75975 2.309392,-5.82706 7.847221,-8.46887 14.276889,-6.81076 2.297384,0.59246 5.278089,2.07408 7.039165,3.49896 2.425725,1.96265 5.425953,6.52548 6.435555,9.78738 1.267556,4.09533 1.657792,9.13539 0.997968,12.88917 -1.090968,6.20658 -3.588415,8.4211 -7.759283,6.88024 z"
         id="path88"
         inkscape:connector-curvature="0" />
      <path
         style="fill:#f573a3;stroke-width:0.25399998"
         d="m 93.411546,180.4488 c -0.881006,-1.03296 -1.489245,-2.34947 -1.489245,-3.22341 0,-0.7274 -0.123924,-0.97745 -0.5715,-1.15314 -0.651076,-0.25557 -2.529604,-2.15321 -2.954835,-2.98489 -0.156015,-0.30514 -0.283665,-1.53483 -0.283665,-2.73265 0,-2.09738 0.01834,-2.1664 0.496448,-1.86782 0.273048,0.17052 0.534739,0.25722 0.581536,0.19266 0.0468,-0.0646 0.289209,-1.14585 0.538696,-2.40287 0.584278,-2.94384 1.129123,-3.87093 3.342629,-5.68766 2.337184,-1.91824 2.540061,-2.01773 4.994555,-2.44927 1.793352,-0.31531 2.294085,-0.31474 3.824365,0.004 3.72345,0.77635 8.57377,4.48458 8.57377,6.5549 0,0.19144 0.29123,0.91037 0.64718,1.59762 0.58624,1.13189 0.63151,1.42858 0.48073,3.15084 -0.0915,1.04571 -0.38631,2.45906 -0.65501,3.14077 -0.57814,1.46675 -0.43532,2.14112 0.49653,2.34457 1.20579,0.26325 1.31657,0.33565 1.31657,0.8604 0,0.46121 -0.16149,0.51597 -1.52168,0.51597 h -1.52168 l -1.71682,1.63226 c -1.68527,1.60227 -1.70533,1.63657 -1.09123,1.86711 l 0.62559,0.23486 -0.54539,0.29189 c -0.76088,0.4072 -1.00898,0.36969 -1.62426,-0.24559 -0.47402,-0.47402 -0.71674,-0.5172 -2.05569,-0.36571 -0.83502,0.0945 -1.80074,0.27918 -2.14606,0.41047 -1.03408,0.39316 -1.678168,0.27616 -2.880779,-0.52329 -0.62865,-0.4179 -1.441788,-0.76031 -1.806971,-0.76091 -0.603253,-0.001 -0.661322,0.086 -0.635,0.95141 0.0285,0.93701 0.01224,0.95373 -1.000171,1.02814 -0.744225,0.0547 -1.13697,-0.0508 -1.418613,-0.381 z M 73.126301,151.40152 c -7.822804,-2.14764 -12.88719,-5.75827 -15.600799,-11.12252 -2.779642,-5.49477 -2.059293,-11.98624 1.71629,-15.46645 5.507096,-5.07627 15.286223,-2.81166 20.23902,4.68685 2.46412,3.73067 3.539823,7.31968 3.54708,11.83462 0.0075,4.6439 -1.10771,7.85551 -3.352676,9.65543 -0.816658,0.65476 -1.193777,0.76895 -2.794,0.84599 -1.312652,0.0632 -2.403175,-0.0628 -3.754915,-0.43392 z"
         id="path86"
         inkscape:connector-curvature="0" />
      <path
         style="fill:#e94f9a;stroke-width:0.25399998"
         d="m 98.780301,178.99531 c -0.34925,-0.18783 -1.536144,-0.58716 -2.637541,-0.88739 -1.818853,-0.49581 -2.042673,-0.50956 -2.440079,-0.14991 -0.613443,0.55516 -0.940976,0.0886 -1.161928,-1.6552 -0.206815,-1.63219 -0.645168,-2.25265 -1.478885,-2.09328 -0.412925,0.0789 -0.878835,-0.1369 -1.530365,-0.70895 -1.150119,-1.00982 -1.161643,-1.8222 -0.02861,-2.01717 l 0.755592,-0.13002 0.0293,-2.41161 c 0.047,-3.86829 0.393344,-4.87161 2.34572,-6.79537 2.088911,-2.05828 3.200108,-2.79311 4.913252,-3.24909 2.695453,-0.71744 5.253263,-0.29065 7.837543,1.30775 2.80315,1.73377 3.64704,2.8467 4.69974,6.19809 0.7637,2.43132 0.73783,3.8795 -0.1091,6.10844 -1.30816,3.44282 -3.22006,5.18311 -6.79938,6.18909 -2.61454,0.73483 -3.470113,0.79218 -4.395259,0.29462 z M 70.71037,148.67035 c -5.734284,-1.45871 -10.447429,-5.52485 -12.21677,-10.5397 -1.049203,-2.97376 -0.949307,-6.06366 0.283306,-8.76317 0.892505,-1.95464 2.191649,-3.24169 4.30923,-4.26912 1.61624,-0.78419 1.971027,-0.85873 4.064,-0.85384 5.122288,0.012 9.437088,2.82438 12.044459,7.85066 1.492184,2.8765 1.894855,4.51653 1.906516,7.76498 0.01562,4.3523 -1.017824,6.83041 -3.484458,8.35541 -1.558684,0.96366 -4.217556,1.13875 -6.906283,0.45478 z"
         id="path84"
         inkscape:connector-curvature="0" />
      <path
         style="fill:#d52d92;stroke-width:0.25399998"
         d="m 97.764301,177.93457 c -2.490681,-0.66531 -3.610392,-1.39638 -4.318,-2.81926 -0.34925,-0.70229 -0.930928,-1.62228 -1.292619,-2.04442 -1.287676,-1.5029 -1.619527,-5.89828 -0.623697,-8.26089 0.939292,-2.22847 3.830648,-4.50162 6.587917,-5.17936 3.083678,-0.75796 6.028408,0.0905 8.659258,2.49493 1.84077,1.68236 2.92514,4.33699 2.92514,7.16099 0,1.69577 -0.10327,2.0901 -1.03473,3.9511 -0.83195,1.6622 -1.30311,2.26995 -2.40425,3.10132 -2.42927,1.83412 -5.46936,2.40486 -8.499019,1.59559 z M 69.322458,145.42198 c -3.572015,-0.95989 -7.265731,-4.44809 -8.261764,-7.80209 -0.501429,-1.6885 -0.483207,-4.35249 0.04028,-5.88883 0.502242,-1.474 2.193433,-3.26475 3.720453,-3.93948 3.470605,-1.53351 7.377402,-0.49214 10.3994,2.77197 3.874671,4.18511 4.39356,10.6606 1.097686,13.69863 -1.710903,1.57706 -4.019265,1.95973 -6.996055,1.1598 z"
         id="path82"
         inkscape:connector-curvature="0" />
      <path
         style="fill:#c41989;stroke-width:0.25399998"
         d="m 97.554599,177.08945 c -2.141449,-0.79464 -2.867051,-1.32582 -4.025004,-2.94652 -1.511658,-2.11575 -1.659875,-2.51481 -1.798416,-4.84197 -0.234427,-3.93778 1.275186,-6.59617 4.704423,-8.28437 1.494452,-0.73572 1.944961,-0.83643 3.741698,-0.83643 1.79517,0 2.24777,0.10097 3.73529,0.83327 3.17232,1.56173 5.02771,4.58025 5.02771,8.17954 0,3.17045 -2.0799,6.41168 -4.90174,7.63868 -1.86822,0.81234 -4.68748,0.92443 -6.483961,0.2578 z M 69.697301,142.42586 c -2.676025,-0.84631 -4.528424,-2.31011 -5.496847,-4.3437 -1.941873,-4.07772 0.278313,-8.06286 4.480847,-8.04293 2.471212,0.0117 5.169383,1.87625 6.286769,4.34439 0.630228,1.39207 0.849795,3.85585 0.469016,5.26284 -0.340672,1.25879 -1.622613,2.48228 -3.002343,2.86543 -1.180071,0.32771 -1.456705,0.31902 -2.737442,-0.086 z"
         id="path80"
         inkscape:connector-curvature="0" />
      <path
         style="fill:#ba0e83;stroke-width:0.25399998"
         d="m 97.383301,176.54949 c -1.747959,-0.61372 -2.551918,-1.29532 -3.964587,-3.36119 -2.846227,-4.16227 -1.187724,-9.78339 3.517814,-11.92283 1.811073,-0.82343 4.790192,-0.77887 6.693032,0.10009 2.8744,1.32776 4.55227,3.83733 4.74815,7.10177 0.1418,2.36321 -0.30261,3.876 -1.66812,5.67832 -1.97236,2.6033 -5.88556,3.61193 -9.326289,2.40384 z M 69.582168,139.94361 c -2.929334,-0.8407 -4.463969,-3.83243 -3.13561,-6.11278 0.959465,-1.64708 3.609249,-1.76593 5.242504,-0.23514 2.250204,2.10902 2.207923,5.31669 -0.08216,6.233 -0.566983,0.22686 -1.057145,0.40217 -1.089243,0.38957 -0.0321,-0.0126 -0.45307,-0.13619 -0.935491,-0.27465 z"
         id="path78"
         inkscape:connector-curvature="0" />
      <path
         style="fill:#990079;stroke-width:0.25399998"
         d="m 97.669686,175.93625 c -2.200994,-0.78456 -3.972921,-2.86527 -4.6187,-5.42356 -1.118375,-4.43049 1.847311,-8.61721 6.444409,-9.0977 4.484625,-0.46874 8.268585,3.01356 8.290385,7.62948 0.007,1.52595 -0.11206,2.03836 -0.77458,3.32769 -0.86823,1.68966 -2.55391,3.16973 -4.15715,3.65007 -1.29468,0.3879 -3.979891,0.34336 -5.184364,-0.086 z"
         id="path76"
         inkscape:connector-curvature="0" />
      <path
         style="fill:#60006e;stroke-width:0.25399998"
         d="m 98.145301,174.06472 c -5.532623,-2.65484 -3.927396,-10.70956 2.134309,-10.70956 1.53095,0 2.34089,0.28806 3.58867,1.27632 2.87658,2.27829 2.63646,6.82604 -0.47423,8.98175 -1.39455,0.96642 -3.752892,1.16928 -5.248749,0.45149 z"
         id="path74"
         inkscape:connector-curvature="0" />
    </g>
    <flowRoot
       xml:space="preserve"
       id="flowRoot928"
       style="font-style:normal;font-weight:normal;font-size:40px;line-height:1.25;font-family:sans-serif;letter-spacing:0px;word-spacing:0px;opacity:0.6;fill:#333333;fill-opacity:1;stroke:none"
       transform="matrix(0.26458333,0,0,0.26458333,3.8041913,-60.502146)"><flowRegion
         id="flowRegion930"
         style="fill:#333333"><rect
           id="rect932"
           width="408.57144"
           height="101.42857"
           x="148.57143"
           y="773.94824"
           style="fill:#333333" /></flowRegion><flowPara
         id="flowPara934"
         style="font-style:normal;font-variant:normal;font-weight:500;font-stretch:normal;font-size:85.33333588px;font-family:'Fira Sans';-inkscape-font-specification:'Fira Sans, Medium';font-variant-ligatures:normal;font-variant-caps:normal;font-variant-numeric:normal;font-feature-settings:normal;text-align:start;writing-mode:lr-tb;text-anchor:start;fill:#333333">CASTRO</flowPara></flowRoot>  </g>
</svg>
