<?xml version="1.0" encoding="UTF-8" standalone="no"?>
<!-- Created with Inkscape (http://www.inkscape.org/) -->

<svg
   xmlns:dc="http://purl.org/dc/elements/1.1/"
   xmlns:cc="http://creativecommons.org/ns#"
   xmlns:rdf="http://www.w3.org/1999/02/22-rdf-syntax-ns#"
   xmlns:svg="http://www.w3.org/2000/svg"
   xmlns="http://www.w3.org/2000/svg"
   xmlns:sodipodi="http://sodipodi.sourceforge.net/DTD/sodipodi-0.dtd"
   xmlns:inkscape="http://www.inkscape.org/namespaces/inkscape"
   width="108.77233mm"
   height="108.77233mm"
   viewBox="0 0 108.77233 108.77233"
   version="1.1"
   id="svg8"
   inkscape:version="0.92.4 (unknown)"
   sodipodi:docname="castro_logo_hot.svg">
  <defs
     id="defs2" />
  <sodipodi:namedview
     id="base"
     pagecolor="#ffffff"
     bordercolor="#666666"
     borderopacity="1.0"
     inkscape:pageopacity="0.0"
     inkscape:pageshadow="2"
     inkscape:zoom="0.98994949"
     inkscape:cx="-136.89205"
     inkscape:cy="164.65656"
     inkscape:document-units="mm"
     inkscape:current-layer="layer1"
     showgrid="false"
     inkscape:window-width="1920"
     inkscape:window-height="983"
     inkscape:window-x="0"
     inkscape:window-y="27"
     inkscape:window-maximized="1" />
  <metadata
     id="metadata5">
    <rdf:RDF>
      <cc:Work
         rdf:about="">
        <dc:format>image/svg+xml</dc:format>
        <dc:type
           rdf:resource="http://purl.org/dc/dcmitype/StillImage" />
        <dc:title />
      </cc:Work>
    </rdf:RDF>
  </metadata>
  <g
     inkscape:label="Layer 1"
     inkscape:groupmode="layer"
     id="layer1"
     transform="translate(-51.020108,-87.719274)">
    <circle
       style="opacity:0.8;fill:#ffffff;fill-opacity:1;stroke:#202020;stroke-width:0.91460222;stroke-miterlimit:4;stroke-dasharray:none;stroke-opacity:0.50196078"
       id="path121"
       cx="105.40627"
       cy="142.10544"
       r="53.928864" />
    <g
       id="g82">
      <path
         style="fill:#fefecd;stroke-width:0.25400001"
         d="m 122.36972,179.76255 c -0.52017,-0.3259 -1.17483,-0.79985 -1.4548,-1.05322 -0.38432,-0.34781 -0.76161,-0.42681 -1.53983,-0.32243 -1.34259,0.18008 -2.94388,-0.6721 -4.74262,-2.52395 -0.92954,-0.957 -1.51237,-1.35589 -1.98111,-1.35589 -0.78861,0 -1.94342,-0.55939 -3.21144,-1.55563 -0.67762,-0.53238 -1.00204,-1.04422 -1.22566,-1.9337 -0.16726,-0.66531 -0.52409,-1.56606 -0.79295,-2.00165 -0.26886,-0.43559 -0.48884,-1.01023 -0.48884,-1.27698 0,-0.26675 -0.16524,-0.72092 -0.36721,-1.00926 -0.20196,-0.28835 -0.49663,-1.0853 -0.65483,-1.77102 -0.15819,-0.68572 -0.47176,-1.68481 -0.69681,-2.2202 -0.32524,-0.77374 -0.34723,-1.07266 -0.10717,-1.45705 0.38556,-0.61738 0.38486,-0.99851 -0.002,-0.99851 -0.6503,0 -2.30009,-1.41638 -2.79245,-2.3974 -0.28477,-0.56738 -1.06049,-1.66174 -1.72383,-2.43192 -0.663335,-0.77017 -1.536097,-1.86984 -1.939467,-2.4437 -3.481964,-4.95369 -5.196055,-7.2596 -6.18201,-8.31646 -1.284259,-1.37662 -3.240318,-2.72102 -4.622906,-3.17731 -0.499049,-0.16471 -1.523215,-0.67017 -2.275924,-1.12326 -0.752709,-0.45309 -2.111865,-1.23934 -3.020345,-1.74723 -1.571978,-0.87879 -5.16908,-4.32629 -6.476268,-6.20688 -0.626247,-0.90095 -2.921,-4.87783 -2.921,-5.06218 0,-0.0738 -0.220389,-0.44392 -0.489752,-0.82244 -0.68948,-0.96888 -1.519764,-5.72284 -1.584125,-9.07022 -0.05995,-3.11777 0.473254,-5.30827 1.823911,-7.493 0.388648,-0.62865 0.778203,-1.4859 0.865678,-1.905 0.207834,-0.99575 3.887098,-4.64177 5.008712,-4.96344 0.447169,-0.12825 1.964933,-0.30234 3.372807,-0.38688 2.022653,-0.12144 3.066088,-0.0481 4.972769,0.34964 2.493731,0.52017 5.523377,1.63343 5.969859,2.19366 0.140172,0.17588 0.711672,0.55318 1.27,0.83845 0.959411,0.49019 2.190589,1.26324 5.05148,3.17179 1.536891,1.02529 3.710661,2.96789 3.710661,3.31607 0,0.14232 0.26723,0.61245 0.59384,1.04474 0.32661,0.43228 0.80425,1.35747 1.06144,2.05597 0.25718,0.6985 0.69388,1.59886 0.97045,2.00079 1.76017,2.55805 3.35485,7.79483 3.72217,12.22321 0.10429,1.2573 0.31888,2.60777 0.47686,3.00104 0.15798,0.39327 0.28724,1.27235 0.28724,1.95351 0,1.25622 0.39923,1.88459 0.78821,1.24061 0.68654,-1.1366 0.66703,-1.12697 1.54986,-0.76511 0.46031,0.18867 1.17983,0.39982 1.59893,0.46922 0.4191,0.0694 0.94887,0.36187 1.17726,0.64993 0.40457,0.51026 0.45033,0.51295 1.778,0.10456 1.62928,-0.50116 2.8532,-0.54736 6.06174,-0.22881 2.92509,0.29041 3.63924,0.55434 4.953,1.83045 0.93138,0.90469 4.18678,2.71096 5.715,3.17098 0.34925,0.10514 1.0922,0.3927 1.651,0.63903 0.5588,0.24633 1.84652,0.80915 2.86159,1.25071 6.29009,2.73622 9.8172,6.58445 12.05481,13.15229 1.05383,3.09323 1.50408,5.79068 1.30303,7.80651 -0.0705,0.7068 -0.6537,2.69249 -1.29601,4.41266 -1.29271,3.462 -1.66254,3.85742 -3.60781,3.85742 -1.05754,0 -1.08799,0.0215 -2.53929,1.79139 -0.6323,0.77111 -0.99194,0.95156 -2.47213,1.24044 -0.9527,0.18592 -2.04084,0.49423 -2.41808,0.68511 -0.37723,0.19089 -1.13304,0.34706 -1.67957,0.34706 -0.72169,0 -1.25615,0.20859 -1.95254,0.762 -1.10245,0.87612 -1.32246,0.91295 -2.11932,0.35481 -0.4869,-0.34104 -0.9978,-0.37739 -3.1447,-0.22373 -2.29216,0.16406 -2.62628,0.25137 -3.15817,0.82529 -0.32714,0.353 -0.59481,0.72628 -0.59481,0.82951 0,0.37988 -1.21673,0.96855 -2.30711,1.11622 -0.90646,0.12275 -1.3035,0.0382 -2.06764,-0.44061 z m 1.07275,-1.92631 c 0,-0.25748 -0.77363,-0.60821 -0.95079,-0.43105 -0.0638,0.0638 -0.0407,0.23798 0.0513,0.38697 0.20264,0.32789 0.89944,0.36203 0.89944,0.0441 z"
         id="path128"
         inkscape:connector-curvature="0" />
      <path
         style="fill:#fefeb0;stroke-width:0.25400001"
         d="m 117.24347,177.44761 c -0.59683,-0.22131 -1.56159,-0.98146 -2.42182,-1.9082 -1.03622,-1.11632 -1.61006,-1.54035 -2.08457,-1.54035 -1.17417,0 -3.30064,-1.98571 -4.01862,-3.75262 -0.26828,-0.66021 -0.89418,-1.99392 -1.39089,-2.96382 -0.4967,-0.96988 -0.90698,-2.11288 -0.91172,-2.54 -0.005,-0.4271 -0.22718,-1.23376 -0.49431,-1.79256 -0.4834,-1.0112 -0.4832,-1.01792 0.0421,-1.42331 0.73542,-0.56759 0.36259,-1.12157 -1.32098,-1.9628 -1.04016,-0.51974 -1.5301,-0.97153 -2.09354,-1.93051 -0.40457,-0.68859 -1.22727,-1.83145 -1.82824,-2.53968 -0.60096,-0.70823 -1.420867,-1.75503 -1.822009,-2.32622 -0.401142,-0.57118 -1.615333,-2.30207 -2.698199,-3.84642 -1.082865,-1.54434 -2.500539,-3.39926 -3.150385,-4.12204 -1.227417,-1.36519 -3.449249,-2.93654 -4.779498,-3.38023 -0.423097,-0.14111 -2.156493,-1.04901 -3.851988,-2.01755 -2.622713,-1.49819 -3.418657,-2.11352 -5.334,-4.12356 -2.790744,-2.92872 -2.953666,-3.15249 -4.91082,-6.74468 -1.940838,-3.56224 -2.613332,-6.23684 -2.650399,-10.541 -0.0306,-3.5534 0.817516,-6.20574 3.005116,-9.398 0.919457,-1.34171 0.952956,-1.37802 3.28527,-3.5603 l 1.488447,-1.3927 h 2.37266 c 1.304963,0 3.030901,0.17145 3.835418,0.381 0.804517,0.20955 1.991365,0.381 2.637442,0.381 1.592791,0 4.000208,0.82807 5.904936,2.03108 0.867156,0.54769 2.220915,1.35247 3.008348,1.7884 2.116742,1.17184 5.469251,3.93906 5.651391,4.66475 0.0857,0.34134 0.4259,0.94375 0.75608,1.3387 0.33018,0.39494 0.68413,1.00382 0.78656,1.35307 0.10244,0.34925 0.61666,1.37795 1.14271,2.286 2.07995,3.5903 3.34966,7.7313 3.79284,12.36986 0.1308,1.36903 0.362,2.81091 0.51377,3.20418 0.15177,0.39327 0.27595,1.39339 0.27595,2.2225 0,1.26942 0.0702,1.50619 0.4445,1.49939 0.24447,-0.004 0.64304,-0.15884 0.8857,-0.34309 0.61419,-0.46637 3.00052,0.32655 3.28329,1.09095 0.21977,0.59409 0.69159,0.6558 1.99219,0.26057 0.48802,-0.1483 2.25892,-0.36649 3.93532,-0.48487 1.6764,-0.11837 3.36073,-0.2958 3.74295,-0.39429 1.16272,-0.29959 2.45882,0.10419 3.58235,1.11601 1.43627,1.29347 3.28545,2.46492 4.70414,2.98007 2.37365,0.86191 4.76809,2.13506 6.11681,3.25238 1.39935,1.15926 1.86468,1.39713 3.70153,1.89214 1.03592,0.27916 3.59575,2.57435 4.71462,4.2272 1.0618,1.56856 2.47805,4.63549 2.99843,6.49321 0.67045,2.39342 0.76823,6.33379 0.15717,6.33379 -0.28827,0 -0.381,-0.31157 -0.381,-1.28012 0,-1.52499 -0.69529,-3.03439 -1.6276,-3.53335 -0.3617,-0.19358 -0.71646,-0.29313 -0.78836,-0.22123 -0.0719,0.0719 -0.0547,1.46158 0.0382,3.08816 0.15782,2.7633 0.21553,3.00965 0.87906,3.75286 0.56753,0.63568 0.84035,0.76275 1.35844,0.63271 0.52732,-0.13235 0.64828,-0.0712 0.64828,0.32753 0,0.77393 -1.03038,3.26372 -1.54245,3.72714 -0.42951,0.3887 -0.55535,0.38964 -1.66256,0.0124 -0.65883,-0.22449 -1.40255,-0.59338 -1.6527,-0.81977 -0.4204,-0.38046 -0.51803,-0.37469 -1.29022,0.0763 -0.96668,0.56457 -1.17324,1.17651 -0.59299,1.75676 0.41207,0.41207 0.33879,1.16743 -0.17566,1.81079 -0.29963,0.37471 -1.96087,0.86758 -2.27333,0.67447 -0.12132,-0.075 -0.1459,-0.69934 -0.0546,-1.38747 0.16201,-1.22123 0.15015,-1.25115 -0.49589,-1.25115 -0.96928,0 -1.52998,1.0169 -1.57731,2.86066 -0.043,1.67469 -0.14308,1.7928 -1.76327,2.08081 -0.5588,0.0993 -1.40064,0.36186 -1.87076,0.58339 -0.65475,0.30854 -0.96128,0.33626 -1.30999,0.11849 -0.25037,-0.15636 -1.791,-0.3185 -3.42362,-0.36032 l -2.96839,-0.076 -0.55716,0.6985 c -0.63696,0.79855 -1.96853,0.94522 -2.80913,0.30943 -0.63562,-0.48077 -2.39556,-0.48098 -2.92664,-2.6e-4 -0.61759,0.55892 -2.99635,0.71952 -4.17631,0.28197 z"
         id="path126"
         inkscape:connector-curvature="0" />
      <path
         style="fill:#fefd8f;stroke-width:0.25400001"
         d="m 117.92027,177.32467 c -0.53134,-0.0972 -1.49305,-0.75848 -2.71249,-1.86511 -1.03911,-0.94297 -2.05485,-1.7145 -2.2572,-1.7145 -0.20235,0 -0.51645,-0.17898 -0.69801,-0.39775 -0.18156,-0.21876 -0.64303,-0.55957 -1.02551,-0.75735 -0.38247,-0.19779 -1.02943,-0.96178 -1.43767,-1.69775 -0.40825,-0.73598 -1.20186,-2.0811 -1.76358,-2.98915 -0.58686,-0.9487 -1.13901,-2.24525 -1.298,-3.048 -0.15217,-0.76835 -0.35233,-1.70699 -0.44478,-2.08587 -0.11653,-0.47754 -0.0392,-0.81776 0.25205,-1.10902 0.36513,-0.36514 0.37403,-0.49112 0.0679,-0.96213 -0.19372,-0.29809 -0.90766,-0.82773 -1.58654,-1.17698 -0.84395,-0.43417 -1.55955,-1.09246 -2.26267,-2.08146 -0.56559,-0.79555 -1.4936,-2.05285 -2.06226,-2.794 -0.56866,-0.74115 -2.168852,-2.94774 -3.555992,-4.90354 -3.582383,-5.05099 -5.407772,-6.81764 -8.745088,-8.46368 -4.909685,-2.42158 -6.754287,-3.63568 -9.15639,-6.02665 -1.250485,-1.24469 -2.27361,-2.37239 -2.27361,-2.506 0,-0.13361 -0.219819,-0.47889 -0.488488,-0.7673 -0.268666,-0.2884 -1.191578,-1.86539 -2.050913,-3.50443 -1.207519,-2.30313 -1.672765,-3.51476 -2.048176,-5.334 -0.522218,-2.53066 -0.66208,-7.14533 -0.256152,-8.45161 1.862556,-5.99375 5.846107,-10.14084 9.923729,-10.33115 2.224654,-0.10382 7.327085,0.5571 9.341589,1.21002 1.016727,0.32954 2.331177,0.92502 2.921,1.3233 0.589826,0.39828 1.815361,1.13505 2.723411,1.63725 1.941142,1.07357 4.67355,3.47182 5.24517,4.60371 0.22124,0.4381 0.6073,1.02514 0.85792,1.30454 0.25061,0.2794 1.30106,2.16535 2.33434,4.191 2.1765,4.26686 3.17837,7.64266 3.51448,11.84203 0.11612,1.45068 0.30336,2.78011 0.4161,2.95429 0.11274,0.17417 0.26214,1.17393 0.33199,2.22168 l 0.127,1.905 h 0.889 c 1.06057,0 2.45289,0.52587 3.22918,1.21963 0.48936,0.43734 0.78548,0.48092 2.286,0.33644 0.9481,-0.0913 2.86682,-0.27574 4.26382,-0.4099 1.397,-0.13415 3.02162,-0.41635 3.61027,-0.62711 0.58865,-0.21076 1.2173,-0.33759 1.397,-0.28184 0.1797,0.0557 0.63569,0.16888 1.01331,0.25142 0.37762,0.0825 1.55093,0.88461 2.60735,1.7824 1.18146,1.00406 2.4675,1.8369 3.34127,2.16382 1.58846,0.59432 6.90839,3.97516 8.8588,5.62981 1.89748,1.60974 2.91564,2.99683 2.91853,3.97608 0.001,0.458 0.36266,1.54385 0.80289,2.413 0.88139,1.74009 1.33733,4.51442 1.34505,8.18425 0.004,1.87678 -0.0696,2.16782 -0.96271,3.81 -1.27047,2.33601 -1.65893,2.71924 -3.85758,3.80562 -1.01952,0.50375 -1.97697,1.06447 -2.12765,1.24603 -0.15069,0.18157 -0.47773,1.00517 -0.72677,1.83024 -0.41009,1.35861 -0.56443,1.5594 -1.63623,2.12862 -1.06594,0.56611 -1.27074,0.59694 -2.06275,0.31055 -0.6278,-0.22702 -1.19559,-0.24897 -1.98505,-0.0768 -0.60815,0.13267 -1.79153,0.24026 -2.62973,0.23909 -0.8382,-0.001 -2.15265,0.19305 -2.921,0.43158 -0.76835,0.23854 -2.54,0.50562 -3.937,0.59352 -1.397,0.0879 -2.7686,0.28682 -3.048,0.44203 -0.74409,0.41335 -1.66762,0.54687 -2.6012,0.37608 z m 29.48022,-8.81224 c -0.21654,-0.5643 0.4599,-0.93804 0.90053,-0.49756 0.19116,0.1911 0.27014,0.47271 0.17551,0.62582 -0.25553,0.41346 -0.89753,0.33694 -1.07604,-0.12826 z"
         id="path124"
         inkscape:connector-curvature="0" />
      <path
         style="fill:#fefd6f;stroke-width:0.25400001"
         d="m 118.02601,176.87993 c -0.0919,-0.0919 -0.044,-0.31551 0.10653,-0.49687 0.44512,-0.53634 0.0188,-0.86 -1.13271,-0.86 -1.15897,0 -2.25736,-0.63703 -3.22966,-1.87311 -0.295,-0.37504 -1.03331,-0.93569 -1.64069,-1.24589 -0.82933,-0.42356 -1.47467,-1.10161 -2.59162,-2.723 -1.65042,-2.39577 -1.86759,-2.8637 -2.56739,-5.5319 -0.47431,-1.80842 -0.47447,-1.85451 -0.007,-2.10444 0.2626,-0.14054 0.47746,-0.40157 0.47746,-0.58007 0,-0.46925 -1.22745,-1.54872 -2.468,-2.17047 -0.58906,-0.29523 -1.20251,-0.79358 -1.36322,-1.10745 -0.16072,-0.31387 -0.90749,-1.38354 -1.65949,-2.37704 -0.752,-0.99351 -1.36728,-1.96814 -1.36728,-2.16584 0,-0.44541 -1.189261,-2.03156 -4.353784,-5.80679 -3.592329,-4.28559 -5.373118,-5.78623 -8.178779,-6.89212 -0.697913,-0.27509 -1.56402,-0.70547 -1.924685,-0.9564 -0.360662,-0.25093 -1.455852,-0.89484 -2.433752,-1.4309 -2.220587,-1.21729 -5.620702,-4.46175 -7.178182,-6.84958 -3.103818,-4.75857 -4.537406,-9.50173 -4.299112,-14.224 0.1044,-2.06889 0.270752,-2.87898 0.896895,-4.36767 1.082081,-2.57269 1.212037,-2.79382 2.770032,-4.71344 1.142725,-1.40797 1.736772,-1.88551 3.317102,-2.66655 1.713187,-0.84671 2.136323,-0.95117 3.844176,-0.94903 4.344893,0.005 9.0178,0.93346 10.682089,2.12146 0.34925,0.2493 1.328163,0.82081 2.17536,1.27002 3.358444,1.78074 6.02731,4.59633 8.60404,9.07706 2.39645,4.16723 3.83526,8.68018 4.23243,13.27536 0.14046,1.62514 0.36356,3.28617 0.49578,3.69119 0.13221,0.40503 0.25178,1.20513 0.26571,1.778 0.0414,1.70378 0.30302,2.32312 0.94274,2.23188 0.30743,-0.0438 0.89025,0.15618 1.29516,0.4445 0.40491,0.28832 0.91858,0.52422 1.14149,0.52422 0.27918,0 0.40529,0.23244 0.40529,0.74701 0,1.05599 0.43465,1.19631 1.25907,0.40647 0.68488,-0.65616 0.82899,-0.68332 4.10686,-0.77404 1.86839,-0.0517 4.14002,-0.21308 5.04807,-0.35862 0.90805,-0.14553 2.15845,-0.2669 2.77866,-0.26971 1.02938,-0.005 1.2295,0.1051 2.2963,1.25943 0.73778,0.79833 1.82035,1.58411 2.93634,2.13132 4.26519,2.0914 7.91347,4.60562 8.80447,6.06763 0.32078,0.52635 1.13418,1.72707 1.80755,2.66826 2.14463,2.99757 2.64829,4.23314 2.97948,7.30922 0.34683,3.22139 0.0531,5.79335 -0.9043,7.91928 -0.46157,1.02489 -0.90311,1.52713 -1.94817,2.21599 -3.10668,2.0478 -3.34828,2.27521 -3.8807,3.65265 -0.35574,0.92039 -0.77803,1.50508 -1.34458,1.86168 -0.74622,0.4697 -0.9482,0.49056 -2.09244,0.21606 -1.04051,-0.24962 -1.50499,-0.23619 -2.60305,0.0753 -0.73511,0.2085 -2.02236,0.51356 -2.86056,0.6779 -0.8382,0.16435 -2.26695,0.45169 -3.175,0.63854 -0.90805,0.18685 -2.51495,0.40391 -3.57089,0.48235 -1.05595,0.0785 -2.33815,0.31738 -2.84935,0.53097 -0.98587,0.41193 -1.76879,0.49665 -2.04422,0.22122 z"
         id="path122"
         inkscape:connector-curvature="0" />
      <path
         style="fill:#fefd4f;stroke-width:0.25400001"
         d="m 119.50547,175.12589 c -1.05007,-0.55453 -1.48447,-0.64561 -2.50848,-0.52593 -1.41736,0.16565 -1.88861,-0.0302 -3.19655,-1.32869 -0.51147,-0.50776 -1.31852,-1.15181 -1.79345,-1.43121 -0.95597,-0.56238 -2.77561,-2.93139 -3.60932,-4.699 -0.29651,-0.62865 -0.7403,-1.88488 -0.9862,-2.79163 -0.38955,-1.43649 -0.40011,-1.70054 -0.082,-2.052 0.6258,-0.69151 0.41572,-1.3587 -0.69713,-2.21401 -0.5842,-0.449 -1.19513,-0.81636 -1.35764,-0.81636 -0.5182,0 -1.20265,-0.97473 -2.04549,-2.91302 -0.82765,-1.90335 -2.17746,-3.67714 -6.674508,-8.77098 -3.382203,-3.83105 -5.310286,-5.39734 -8.259894,-6.71 -2.813177,-1.25194 -6.657843,-3.77165 -8.496323,-5.56831 -2.907431,-2.84129 -5.495055,-7.25461 -6.502114,-11.08969 -0.590809,-2.24991 -0.803549,-6.67738 -0.417436,-8.68752 0.720806,-3.75259 3.476158,-7.80269 6.259765,-9.20124 2.503828,-1.25798 3.77969,-1.43742 7.292909,-1.02567 2.863316,0.33558 6.85834,1.39879 7.17378,1.90918 0.07709,0.12473 0.664469,0.45871 1.305288,0.74218 2.754285,1.21835 6.054873,4.26827 8.391363,7.75407 2.7477,4.09927 4.74904,9.77707 5.1657,14.65509 0.1468,1.7187 0.43293,3.82947 0.63584,4.6906 0.20291,0.86113 0.37068,2.00413 0.37282,2.54 0.005,1.16653 0.31403,1.73661 0.83412,1.53703 0.46988,-0.18031 1.96407,0.88842 2.39681,1.71432 0.50632,0.96634 1.33472,1.08844 1.97097,0.2905 0.50727,-0.63617 0.6526,-0.67136 2.68177,-0.64933 1.17999,0.0128 3.98945,0.01 6.24324,-0.006 l 4.0978,-0.0297 1.22567,0.83695 c 1.23047,0.84023 1.54593,1.02317 4.88929,2.83534 0.99684,0.54031 2.29957,1.50776 2.89494,2.14989 0.59538,0.64213 1.85691,1.9514 2.80341,2.9095 1.11312,1.12675 2.07981,2.43074 2.73708,3.69211 0.5589,1.07256 1.31018,2.46446 1.66952,3.09311 0.61956,1.08389 0.64645,1.28322 0.52009,3.85426 -0.0788,1.60314 -0.35836,3.52367 -0.68403,4.699 -0.54694,1.97392 -0.5687,2.00486 -3.13017,4.44905 -1.61859,1.54449 -2.66928,2.37236 -2.8207,2.2225 -0.35881,-0.35511 -0.53279,-0.3027 -1.39021,0.41877 -0.42982,0.36167 -0.78149,0.87602 -0.78149,1.143 0,0.39279 -0.18431,0.48542 -0.96591,0.48542 -1.09666,0 -5.49445,1.08918 -5.96386,1.47704 -0.4763,0.39355 -1.8322,0.60351 -6.02423,0.93282 -1.72767,0.13572 -2.02322,0.0872 -3.175,-0.52103 z"
         id="path120"
         inkscape:connector-curvature="0" />
      <path
         style="fill:#fefd2f;stroke-width:0.25400001"
         d="m 120.39447,174.71253 c -1.23456,-0.70816 -1.6089,-0.7978 -3.21938,-0.77092 -1.65136,0.0276 -1.91355,-0.0397 -2.794,-0.71709 -0.53439,-0.41114 -1.31452,-0.99556 -1.73362,-1.29872 -0.4191,-0.30316 -1.09705,-0.94308 -1.50656,-1.42205 -0.62227,-0.72783 -0.69597,-0.94866 -0.44874,-1.34453 0.23437,-0.37528 0.21928,-0.51649 -0.0726,-0.67986 -0.20264,-0.1134 -0.87656,-0.80146 -1.49758,-1.52901 -1.35403,-1.58629 -1.96806,-3.64362 -1.30585,-4.37535 0.2125,-0.23481 0.38637,-0.66551 0.38637,-0.95709 0,-0.55247 -1.28335,-1.70934 -2.69972,-2.43365 -1.13853,-0.58223 -1.44073,-1.6952 -0.46029,-1.6952 0.20131,0 0.36601,-0.0904 0.36601,-0.20086 0,-0.35863 -6.82781,-8.23138 -9.610877,-11.08175 -2.749266,-2.81575 -4.209972,-3.91959 -6.998348,-5.28856 -3.976263,-1.95216 -7.486792,-4.26885 -9.057086,-5.977 -2.777892,-3.02176 -4.678923,-6.23351 -5.836881,-9.8613 -0.785409,-2.46063 -0.985675,-7.68364 -0.382978,-9.98822 0.913787,-3.49411 3.292224,-6.78892 5.941716,-8.23095 2.257882,-1.22889 4.03304,-1.52545 7.111611,-1.18808 3.235465,0.35458 4.310703,0.65243 7.148843,1.98032 4.977691,2.32892 8.47256,5.89529 11.38105,11.61391 0.56715,1.11512 1.25565,2.82759 1.53001,3.80549 0.27435,0.9779 0.63095,2.11583 0.79245,2.52873 0.38712,0.98976 1.01796,5.47644 1.02384,7.28184 0.003,0.78571 0.1761,1.9145 0.38565,2.50843 0.20955,0.59393 0.39452,1.60843 0.41105,2.25444 0.0165,0.64601 0.10338,1.51746 0.193,1.93656 0.13901,0.65008 0.27996,0.762 0.95965,0.762 0.62344,0 1.04106,0.2624 1.92026,1.2065 1.21482,1.30452 1.77368,1.45606 3.01068,0.81638 1.70422,-0.88129 5.01949,-1.32882 8.88197,-1.199 3.49356,0.11743 3.73264,0.15935 4.88371,0.8563 0.66567,0.40305 1.3089,0.73282 1.4294,0.73282 0.12049,0 0.36843,0.17996 0.55098,0.39992 0.18254,0.21995 0.8105,0.64858 1.39545,0.9525 1.29335,0.67198 7.01664,6.09156 8.63818,8.17977 1.32373,1.70471 2.65067,4.35625 2.65067,5.29668 0,0.34899 -0.31897,0.94503 -0.72074,1.3468 -0.62785,0.62784 -0.73965,0.97081 -0.86748,2.66094 -0.0807,1.06711 -0.29929,2.23048 -0.48576,2.58526 -0.74003,1.40803 -4.8722,5.98741 -6.50439,7.20832 -1.0267,0.768 -3.03834,1.41877 -3.8709,1.25226 -0.74352,-0.1487 -1.39002,0.19482 -2.73037,1.45081 -0.72008,0.67476 -1.03621,0.78385 -2.413,0.83272 -0.8714,0.0309 -1.90612,0.17859 -2.2994,0.32813 -1.1593,0.44083 -1.99386,0.3115 -3.47596,-0.53864 z"
         id="path118"
         inkscape:connector-curvature="0" />
      <path
         style="fill:#fef705;stroke-width:0.25400001"
         d="m 121.96464,174.61918 c -0.32386,-0.23056 -1.74739,-0.75263 -3.16341,-1.16016 -1.41602,-0.40753 -2.66377,-0.88136 -2.77278,-1.05296 -0.13854,-0.21808 -0.19937,-0.17819 -0.20209,0.1325 -0.006,0.70604 -0.83801,0.5276 -2.12636,-0.45613 -0.94417,-0.72092 -1.17953,-1.0537 -1.17953,-1.6677 0,-1.09554 -0.32491,-1.57401 -1.9711,-2.90274 -0.80185,-0.64722 -1.65792,-1.53658 -1.9024,-1.97638 -0.48027,-0.86398 -0.60383,-2.45855 -0.1905,-2.45855 0.1397,0 0.254,-0.45743 0.254,-1.01652 0,-0.94394 -0.10466,-1.09358 -1.46568,-2.0955 -0.80613,-0.59344 -1.48855,-1.19328 -1.51649,-1.33298 -0.0293,-0.14629 0.37686,-0.21781 0.95769,-0.16866 0.77472,0.0656 1.00848,-0.005 1.00848,-0.30487 0,-0.21463 -0.14355,-0.48163 -0.319,-0.59335 -0.17545,-0.11171 -0.62376,-0.61246 -0.99624,-1.11276 -0.37248,-0.50031 -2.11271,-2.38626 -3.86718,-4.191 -1.75446,-1.80475 -3.192107,-3.36096 -3.194759,-3.45824 -0.0092,-0.33873 -5.897067,-5.55465 -7.239754,-6.41356 -0.743674,-0.47572 -2.24897,-1.31444 -3.345102,-1.86381 -6.182289,-3.09854 -8.854399,-5.2421 -11.335557,-9.09334 -1.489641,-2.31222 -2.010618,-3.37809 -2.844904,-5.82041 -0.914401,-2.67685 -1.159776,-7.21914 -0.533709,-9.87983 1.040756,-4.42306 4.261664,-8.05096 8.151803,-9.18185 2.548824,-0.74096 8.569793,-0.18114 10.363797,0.96362 0.305583,0.19499 1.053328,0.55021 1.661658,0.78937 3.759482,1.478 8.143747,6.01199 10.688927,11.05395 1.60391,3.17734 3.30926,10.66362 3.31597,14.55671 0.001,0.65448 0.12457,1.51173 0.27432,1.905 0.14974,0.39327 0.38133,1.68658 0.51463,2.87403 0.32833,2.92469 0.38889,3.08133 1.12044,2.89772 0.46956,-0.11785 0.83455,0.0714 1.65149,0.85641 1.32624,1.27437 2.93474,1.60479 4.01189,0.82412 0.88741,-0.64315 3.21109,-1.0494 7.16128,-1.252 2.80367,-0.14379 3.37215,-0.10049 4.86066,0.37027 1.74984,0.55341 3.26224,1.58202 4.76295,3.23937 0.85576,0.94509 1.44909,1.44231 5.58522,4.68055 2.96525,2.32152 4.34917,4.16398 4.34917,5.79016 0,0.33524 -0.21152,0.72273 -0.47004,0.86109 -0.39848,0.21326 -0.49686,0.69998 -0.64612,3.19664 -0.19863,3.32228 -0.38818,3.9963 -1.42826,5.07867 -5.6564,5.8864 -6.4488,6.54526 -7.59594,6.31583 -0.82709,-0.16542 -3.28494,1.04333 -4.2593,2.09468 -0.5387,0.58126 -0.74956,0.64532 -1.65014,0.50131 -0.7143,-0.11422 -1.20685,-0.0509 -1.59822,0.20556 -0.9468,0.62037 -2.21703,0.73758 -2.87981,0.26574 z"
         id="path116"
         inkscape:connector-curvature="0" />
      <path
         style="fill:#fee700;stroke-width:0.25400001"
         d="m 122.17247,173.21763 c -2.75508,-0.51506 -3.66173,-0.87633 -3.8124,-1.51912 -0.17454,-0.74468 -0.96066,-0.91982 -2.31169,-0.51504 -1.01489,0.30407 -2.25791,0.0206 -2.25791,-0.51491 0,-0.16228 -0.77152,-1.14327 -1.7145,-2.17996 -2.41496,-2.65496 -2.75863,-3.25007 -2.33453,-4.04252 0.28541,-0.53327 0.27573,-0.73188 -0.0641,-1.31604 -0.22013,-0.37839 -0.47606,-1.04307 -0.56874,-1.47708 -0.10115,-0.47367 -0.42533,-0.92655 -0.81099,-1.13295 -0.35337,-0.18911 -0.75196,-0.54839 -0.88575,-0.79839 -0.20191,-0.37727 -0.14099,-0.45456 0.35833,-0.45456 0.33088,0 0.66887,-0.0673 0.75109,-0.14948 0.0822,-0.0822 -0.1396,-0.9109 -0.49293,-1.8415 -0.35333,-0.93061 -0.80364,-2.20637 -1.0007,-2.83502 -0.571,-1.82162 -0.86328,-2.16734 -3.07734,-3.63995 -1.15124,-0.76571 -3.19423,-2.33942 -4.539996,-3.49712 -3.899784,-3.35483 -5.814629,-4.66262 -9.876854,-6.74567 -6.599994,-3.38438 -8.966347,-5.19154 -11.319563,-8.64466 -2.694896,-3.95452 -3.847234,-7.45946 -3.86725,-11.7626 -0.01503,-3.2306 0.75812,-5.93768 2.341296,-8.19773 1.420412,-2.02771 2.409315,-2.87715 4.590517,-3.94315 1.736593,-0.84871 2.131883,-0.93946 4.471487,-1.0265 3.253095,-0.12104 5.861355,0.49514 9.244381,2.18391 3.918966,1.9563 7.348012,5.62357 9.746002,10.42307 1.80026,3.60317 2.8354,8.67275 3.08403,15.10393 0.10091,2.61004 0.22548,3.42545 0.64026,4.191 0.44107,0.81407 0.49155,1.22626 0.35169,2.87219 -0.19561,2.3021 0.31709,6.58728 0.78812,6.58728 0.62069,0 0.95256,-0.73948 0.7895,-1.75919 -0.0875,-0.54694 -0.0897,-1.17497 -0.005,-1.39562 0.23164,-0.60365 1.20469,-0.48247 1.8776,0.23381 0.8432,0.89755 2.36064,0.89087 2.95287,-0.013 0.6061,-0.92503 1.7601,-1.45622 3.59583,-1.65518 0.89875,-0.0974 1.79499,-0.3533 2.052,-0.58588 0.56297,-0.50949 2.21795,-0.52664 3.0833,-0.0319 0.34925,0.19964 0.92075,0.36643 1.27,0.37063 0.95964,0.0115 4.5547,1.53543 4.82829,2.04664 0.13206,0.24676 0.78565,0.76399 1.45241,1.14939 0.66677,0.38541 1.74005,1.18828 2.38507,1.78417 0.64503,0.59588 1.75765,1.3798 2.47249,1.74204 0.97535,0.49425 1.43598,0.92745 1.84577,1.73587 0.30033,0.59249 0.8867,1.55424 1.30304,2.13721 0.70345,0.98501 0.77498,1.2981 1.01145,4.42747 l 0.25447,3.36752 -0.75641,0.65252 c -0.45612,0.39348 -0.98556,1.28608 -1.33358,2.24835 -0.47809,1.32189 -0.8656,1.8572 -2.25758,3.11859 -1.37565,1.2466 -1.80293,1.50044 -2.35592,1.39963 -0.46868,-0.0854 -0.97418,0.0889 -1.651,0.56939 -0.53652,0.38089 -1.26125,0.83234 -1.6105,1.00321 -0.34925,0.17087 -0.80645,0.41228 -1.016,0.53645 -0.86587,0.51311 -2.74914,1.30192 -3.1083,1.30192 -0.21211,0 -0.79599,0.17145 -1.29752,0.381 -0.99335,0.41504 -1.48197,0.4314 -3.21418,0.10756 z"
         id="path114"
         inkscape:connector-curvature="0" />
      <path
         style="fill:#fed700;stroke-width:0.25400001"
         d="m 120.83613,172.47506 c -0.5213,-0.2794 -1.12251,-0.508 -1.33603,-0.508 -0.21351,0 -0.49116,-0.27079 -0.617,-0.60177 -0.28518,-0.75009 -1.29267,-0.97821 -2.74146,-0.62072 l -1.07784,0.26596 -1.46216,-1.51129 c -2.88939,-2.98646 -3.457,-3.81683 -3.22927,-4.72418 0.11249,-0.44817 -0.0373,-0.98024 -0.49641,-1.76371 -0.36162,-0.61705 -0.65749,-1.31302 -0.65749,-1.54659 0,-0.23357 -0.2286,-0.6204 -0.508,-0.85963 -0.61659,-0.52794 -0.63801,-0.806 -0.0928,-1.20466 0.37919,-0.27727 0.35885,-0.4449 -0.23444,-1.933 -0.97944,-2.45664 -1.68944,-5.5265 -1.87155,-8.0921 -0.0898,-1.26517 -0.24212,-2.30031 -0.33847,-2.30031 -0.0964,0 -0.30396,0.2826 -0.46133,0.628 -0.66104,1.45081 -2.5918,1.13905 -5.57469,-0.90015 -1.221946,-0.83536 -3.298276,-2.25879 -4.614067,-3.16317 -1.315791,-0.90439 -3.887541,-2.36909 -5.715,-3.25488 -7.154632,-3.46796 -10.528732,-6.4778 -13.189692,-11.76578 -1.643734,-3.2665 -2.313904,-8.11557 -1.590527,-11.50839 0.577135,-2.7069 1.527436,-4.43523 3.578745,-6.50873 2.296216,-2.32104 3.752726,-2.93175 7.370821,-3.09054 8.085468,-0.35484 15.16704,4.568 18.98296,13.19624 1.79913,4.06803 2.59858,9.43676 2.37559,15.9534 -0.15059,4.40069 -0.14726,4.43931 0.33439,3.8735 0.26757,-0.31432 0.55389,-0.5715 0.63627,-0.5715 0.0824,0 0.14979,0.95338 0.14979,2.11862 0,1.90083 0.33149,5.44446 0.65125,6.96188 0.0662,0.31433 0.27954,0.5715 0.47401,0.5715 0.47812,0 1.66874,-1.44888 1.66874,-2.03071 0,-1.1546 0.22476,-1.28843 1.87922,-1.11893 1.4602,0.14961 1.62547,0.11202 2.4099,-0.54803 0.84744,-0.71308 1.19901,-0.81123 5.48988,-1.53267 2.02347,-0.34022 2.47561,-0.34132 3.937,-0.01 0.90805,0.20609 2.08531,0.44694 2.61614,0.53523 0.66448,0.11052 1.39722,0.55182 2.35219,1.41664 0.76288,0.69087 1.59449,1.25612 1.84802,1.25612 0.59378,0 4.35965,3.21771 4.35965,3.72506 0,0.21185 0.40005,0.85256 0.889,1.42378 0.48895,0.57123 0.889,1.28502 0.889,1.5862 0,0.30118 0.41076,1.07483 0.9128,1.71922 1.00432,1.28908 1.35795,2.42904 1.36714,4.40703 0.005,1.081 -0.093,1.36922 -0.57281,1.68358 -0.3444,0.22566 -0.75678,0.94372 -1.01813,1.77282 -0.24161,0.76645 -0.6968,1.77567 -1.01154,2.24272 -0.81847,1.21452 -2.62633,2.52159 -3.48772,2.52159 -0.39818,0 -1.05786,0.28196 -1.46893,0.62786 -0.8342,0.70193 -1.86072,1.15014 -2.63413,1.15014 -0.28284,0 -0.70402,0.22117 -0.93597,0.49148 -0.58684,0.68391 -4.64846,2.04852 -6.09721,2.04852 -0.70475,0 -1.57653,-0.20715 -2.13784,-0.508 z"
         id="path112"
         inkscape:connector-curvature="0" />
      <path
         style="fill:#fec700;stroke-width:0.25400001"
         d="m 120.45797,171.94049 c -0.73342,-0.42755 -1.3335,-0.87685 -1.3335,-0.99845 0,-0.36161 -1.68601,-0.71698 -2.73442,-0.57635 -0.76925,0.10317 -1.17979,-0.009 -1.94956,-0.53104 -1.12665,-0.76456 -1.64649,-1.37937 -1.65794,-1.96083 -0.004,-0.22564 -0.25856,-0.72869 -0.56471,-1.11789 -0.30615,-0.3892 -0.87135,-1.34759 -1.25601,-2.12975 -0.38466,-0.78217 -0.86311,-1.70787 -1.06321,-2.05712 -0.86286,-1.50596 -1.19279,-2.56473 -0.94404,-3.02951 0.1821,-0.34027 0.0518,-1.02998 -0.48932,-2.59061 -1.27028,-3.66341 -1.60898,-5.95036 -1.47744,-9.976 0.0893,-2.7342 0.22644,-3.8211 0.57984,-4.59688 l 0.46283,-1.016 0.41109,4.25303 c 0.32518,3.36423 0.50542,4.34623 0.8625,4.699 0.43111,0.42591 0.49137,0.40027 1.3397,-0.57003 2.01639,-2.30631 2.14761,-2.41295 2.97215,-2.41546 0.53987,-0.002 1.18105,-0.29779 1.92479,-0.889 0.80563,-0.64042 1.36975,-0.8873 2.032,-0.88929 0.50421,-0.002 1.47784,-0.17296 2.16362,-0.381 1.59971,-0.48529 4.10444,-0.48403 5.48413,0.003 0.59393,0.20955 1.50095,0.381 2.01562,0.381 0.74019,0 1.21333,0.23694 2.26404,1.13382 0.73057,0.62359 1.74454,1.24874 2.25327,1.38921 1.22609,0.33854 3.11907,2.19648 3.11907,3.06134 0,0.70726 0.59203,1.7116 1.32074,2.24053 0.25149,0.18255 0.45726,0.49654 0.45726,0.69777 0,0.20122 0.39684,0.80512 0.88187,1.34199 1.87695,2.07756 2.78567,5.42059 1.68333,6.1927 -0.26553,0.18599 -0.60969,0.80944 -0.7648,1.38544 -0.76809,2.85248 -1.97914,4.44038 -3.62375,4.7514 -0.46401,0.0877 -1.46049,0.62729 -2.21441,1.19897 -1.11812,0.84786 -1.5089,1.0118 -2.12031,0.88951 -1.06795,-0.21359 -1.97336,0.0773 -2.21444,0.71135 -0.26433,0.69524 -4.02283,2.19408 -5.47049,2.18155 -0.66133,-0.006 -1.4815,-0.28015 -2.3495,-0.78615 z m -19.63183,-25.87015 c -0.63433,-0.25796 -2.291685,-1.18752 -3.683003,-2.06569 -2.107661,-1.33031 -9.216951,-5.05759 -9.646676,-5.05759 -0.504746,0 -4.899327,-3.05455 -6.049879,-4.2051 -2.896864,-2.89687 -5.182661,-6.86307 -5.896581,-10.23145 -0.473338,-2.23328 -0.463205,-5.9174 0.02139,-7.77789 0.947894,-3.63922 3.414224,-6.62604 6.663808,-8.07015 1.519548,-0.67528 5.675623,-0.91345 7.99574,-0.45821 7.696243,1.51012 13.886591,8.22669 16.001631,17.36185 0.45359,1.95915 0.54215,3.16438 0.55394,7.53895 0.0198,7.34726 -0.75289,11.40709 -2.44149,12.82795 -0.90052,0.75774 -1.8976,0.79665 -3.51888,0.13733 z"
         id="path110"
         inkscape:connector-curvature="0" />
      <path
         style="fill:#feaf00;stroke-width:0.25400001"
         d="m 121.06575,171.84828 c -0.50799,-0.34472 -1.23921,-0.86011 -1.62493,-1.14528 -0.4858,-0.35917 -1.18718,-0.5438 -2.28232,-0.60079 -2.16072,-0.11245 -3.21625,-0.72176 -3.86572,-2.23146 -0.28293,-0.6577 -1.18286,-2.20536 -1.99984,-3.43925 -1.65533,-2.50004 -2.15359,-3.73096 -2.19332,-5.41844 -0.0148,-0.62865 -0.27814,-2.0574 -0.58521,-3.175 -0.97609,-3.55256 -1.37497,-8.47871 -0.83297,-10.287 0.16663,-0.55594 0.20946,-0.4927 0.34399,0.508 0.0845,0.62865 0.21949,1.82085 0.29996,2.64933 0.14821,1.52609 0.9281,3.19267 1.49403,3.19267 0.16804,0 0.51972,-0.36261 0.78152,-0.8058 0.78029,-1.32092 2.14006,-2.68672 2.85301,-2.86567 0.36706,-0.0921 1.16958,-0.57901 1.78339,-1.08198 0.86992,-0.71284 1.51956,-0.99099 2.94607,-1.26141 3.30223,-0.62599 3.90304,-0.65238 5.92576,-0.26029 1.10016,0.21326 2.45677,0.46551 3.01467,0.56056 0.70462,0.12005 1.37998,0.51481 2.21162,1.29271 0.82397,0.77072 1.41842,1.11989 1.90663,1.11989 0.88481,10e-6 1.88021,1.17731 2.60239,3.07794 0.36746,0.96707 1.028,1.86653 2.34272,3.19008 1.76778,1.77966 1.83096,1.88585 1.83096,3.07731 0,0.87983 -0.16734,1.46906 -0.58301,2.05282 -0.36138,0.5075 -0.65926,1.41754 -0.78356,2.3938 -0.29332,2.30377 -1.27834,3.98543 -3.28327,5.60534 -1.55522,1.25656 -1.80662,1.37028 -3.26199,1.47555 -1.13557,0.0821 -1.73782,0.26281 -2.15188,0.64553 -0.31624,0.2923 -1.32742,0.94235 -2.24707,1.44454 -2.04925,1.11904 -3.30078,1.19623 -4.64163,0.2863 z M 99.56647,144.1712 c -0.48895,-0.18044 -1.844411,-0.80856 -3.012133,-1.39583 -1.167724,-0.58727 -3.704925,-1.79466 -5.638223,-2.68308 -4.71105,-2.1649 -6.788209,-3.41315 -8.779693,-5.27609 -7.253001,-6.78483 -8.627327,-17.22 -3.041414,-23.09326 3.423402,-3.59951 9.241953,-4.28672 14.96199,-1.76712 3.705987,1.63245 6.670013,4.42828 9.009053,8.49784 2.57984,4.4885 3.5298,8.88291 3.2771,15.1594 -0.34728,8.62563 -2.58136,12.10634 -6.77668,10.55814 z"
         id="path108"
         inkscape:connector-curvature="0" />
      <path
         style="fill:#fe8f00;stroke-width:0.25400001"
         d="m 121.22383,170.70428 c -1.03397,-1.36525 -1.75818,-1.73168 -2.567,-1.29881 -0.28323,0.15157 -1.08521,0.27559 -1.78217,0.27559 -1.53385,0 -2.50787,-0.70332 -3.29598,-2.37995 -0.28778,-0.61221 -1.07223,-1.87724 -1.74322,-2.81117 -2.02694,-2.82121 -2.35462,-3.47732 -2.35476,-4.71488 -7e-5,-0.62865 -0.19089,-2.2437 -0.42406,-3.589 -0.23316,-1.3453 -0.34437,-2.65333 -0.24713,-2.90674 0.15332,-0.39952 0.24235,-0.35296 0.67015,0.35051 0.27134,0.44618 0.60489,0.81123 0.74124,0.81123 0.13634,0 0.41326,-0.55685 0.61537,-1.23744 0.20212,-0.68059 0.54002,-1.56642 0.7509,-1.9685 0.38544,-0.73489 1.86258,-2.2294 2.87325,-2.90702 0.29863,-0.20022 0.93875,-0.67889 1.4225,-1.0637 1.26728,-1.0081 4.94998,-1.62917 7.32985,-1.23614 2.37193,0.39171 4.19318,1.14429 5.95097,2.45907 0.82926,0.62025 1.69408,1.12773 1.92184,1.12773 0.4327,0 1.8143,2.36807 2.10582,3.60938 0.0889,0.37861 0.45352,0.89296 0.81023,1.143 2.36762,1.65963 2.65142,2.2073 1.27736,2.46508 -0.47491,0.0891 -0.97499,0.30184 -1.11129,0.47276 -0.1363,0.17093 -0.32748,1.36381 -0.42485,2.65084 l -0.17704,2.34006 0.71683,0.15766 c 1.26606,0.27845 1.35183,0.3423 1.35183,1.00637 0,1.053 -0.98081,2.70161 -2.3805,4.00129 -1.36009,1.26292 -1.41685,1.2884 -3.77831,1.69606 -1.06283,0.18347 -1.82261,0.52586 -2.794,1.25908 -1.55878,1.1766 -2.4347,1.55042 -3.63286,1.55042 -0.74409,0 -1.0057,-0.18102 -1.82497,-1.26278 z m 4.33386,-0.84378 c 0.44318,-0.51402 0.44386,-0.5533 0.015,-0.86693 -0.69738,-0.50992 -2.30237,-0.41032 -2.89218,0.17949 -0.68692,0.68692 -0.63924,0.97738 0.1905,1.16038 0.38418,0.0847 0.8128,0.19104 0.9525,0.23625 0.4766,0.15422 1.26929,-0.16994 1.73422,-0.70919 z M 98.42347,142.08311 c -2.257141,-0.59882 -7.848966,-2.80102 -10.606474,-4.17708 -5.388089,-2.68879 -9.182808,-7.0253 -10.758004,-12.29397 -0.62624,-2.09463 -0.630893,-6.566 -0.0089,-8.56904 1.076645,-3.46728 3.80777,-6.2091 7.17737,-7.20548 5.610565,-1.65903 12.802306,1.16978 16.856888,6.63052 3.24615,4.37193 4.79245,9.71401 4.50675,15.56968 -0.2362,4.84107 -1.4199,8.10904 -3.40965,9.41336 -0.86845,0.56928 -2.781624,0.89104 -3.757959,0.63201 z"
         id="path106"
         inkscape:connector-curvature="0" />
      <path
         style="fill:#fe6f00;stroke-width:0.25400001"
         d="m 115.07398,168.67857 c -0.77579,-0.77578 -1.37132,-2.07007 -1.52422,-3.31261 -0.10855,-0.88213 -0.25524,-1.15952 -0.64829,-1.22593 -0.50667,-0.0856 -2.10043,-1.61343 -2.7817,-2.66664 -0.23317,-0.36047 -0.3629,-1.29252 -0.3697,-2.65625 -0.01,-1.99204 0.0147,-2.08745 0.47555,-1.84081 0.64596,0.34571 0.7213,0.18779 1.17671,-2.46667 0.28269,-1.64766 0.58421,-2.52517 1.15816,-3.3706 0.70686,-1.04119 1.20687,-1.49968 3.91926,-3.59384 1.51196,-1.16734 5.44689,-1.5795 7.95857,-0.83361 1.56442,0.46458 4.25336,2.03082 5.80724,3.38256 0.86135,0.7493 1.21638,1.32574 1.70373,2.76622 0.33861,1.00082 0.8016,2.10349 1.02889,2.45037 0.51712,0.78923 0.29904,3.44789 -0.43735,5.33174 -0.67909,1.73726 -0.55016,2.53733 0.42664,2.64754 0.79249,0.0894 1.397,0.45036 1.397,0.83412 0,0.1226 -0.52186,0.2229 -1.1597,0.2229 -1.43671,0 -1.89058,0.23555 -3.74428,1.94322 -0.81124,0.74733 -1.58276,1.35878 -1.7145,1.35878 -0.13174,0 -0.23952,0.1143 -0.23952,0.254 0,0.1397 0.2286,0.254 0.508,0.254 0.2794,0 0.508,0.1143 0.508,0.254 0,0.1397 -0.28575,0.254 -0.635,0.254 -0.39511,0 -0.635,-0.14393 -0.635,-0.381 0,-0.52191 -2.12445,-0.50892 -4.25749,0.026 l -1.62295,0.40702 -1.23511,-0.76779 c -1.1197,-0.69604 -1.83594,-0.91615 -2.7215,-0.83636 -0.23812,0.0215 -0.24525,0.17474 -0.0301,0.64692 0.15507,0.34034 0.21335,0.79754 0.12952,1.016 -0.22293,0.58095 -1.82652,0.51703 -2.44085,-0.0973 z M 96.89947,140.03251 c -2.830967,-0.40284 -7.769951,-2.22787 -10.571152,-3.90619 -3.643887,-2.1832 -6.475324,-5.59777 -7.981483,-9.62526 -0.624622,-1.67025 -0.713864,-2.26495 -0.7242,-4.826 -0.01072,-2.65605 0.05426,-3.07886 0.7164,-4.66139 0.992909,-2.37308 2.949222,-4.46113 5.18032,-5.52914 1.364576,-0.65321 2.111781,-0.83542 3.822623,-0.93217 2.724508,-0.15407 4.407035,0.21719 7.316254,1.6144 6.337398,3.04367 10.429578,10.81402 9.904528,18.80705 -0.32175,4.89819 -2.18665,8.16073 -5.12329,8.96289 -1.032104,0.28193 -1.190203,0.28789 -2.54,0.0958 z"
         id="path104"
         inkscape:connector-curvature="0" />
      <path
         style="fill:#fd4f00;stroke-width:0.25400001"
         d="m 119.75947,167.26171 c -0.6985,-0.32947 -1.8582,-0.67599 -2.57711,-0.77006 -1.18481,-0.15503 -1.32306,-0.12077 -1.47762,0.36619 -0.21291,0.67085 -0.50328,0.67821 -1.15227,0.0292 -0.30586,-0.30585 -0.508,-0.84666 -0.508,-1.3591 0,-1.55807 -0.46153,-2.41916 -1.38998,-2.59334 -0.49733,-0.0933 -1.22772,-0.55683 -1.79857,-1.14144 -0.95071,-0.97361 -0.95776,-0.99578 -0.64663,-2.03423 0.25402,-0.84784 0.40911,-1.02516 0.80593,-0.92139 0.59528,0.15567 0.67112,-0.13584 0.82652,-3.17707 0.15429,-3.01949 0.70162,-4.07486 3.26309,-6.29197 2.12232,-1.83699 3.38874,-2.43902 5.70281,-2.71099 3.18701,-0.37457 7.97275,1.95301 9.73675,4.73553 0.79396,1.2524 2.04385,4.95818 2.03907,6.04561 -0.0106,2.40455 -1.77589,6.16179 -3.70141,7.87798 -1.25251,1.11634 -1.66607,1.31513 -3.98996,1.91787 -3.0924,0.80206 -3.48537,0.80414 -5.13262,0.0272 z m -26.416,-29.45394 c -1.985797,-0.43899 -3.761499,-1.05365 -5.323477,-1.84271 -7.914802,-3.99831 -11.629281,-13.58099 -7.64638,-19.72628 1.648401,-2.54335 4.027193,-4.04724 6.886026,-4.35339 6.983174,-0.74784 13.631991,4.54734 15.612331,12.4338 1.20923,4.81562 0.24757,10.1555 -2.23103,12.38847 -1.650486,1.48692 -3.967601,1.83623 -7.29747,1.10011 z"
         id="path102"
         inkscape:connector-curvature="0" />
      <path
         style="fill:#fd2f00;stroke-width:0.25400001"
         d="m 119.75947,166.89376 c -1.8004,-0.67068 -3.98309,-1.34305 -4.52881,-1.3951 -0.6489,-0.0619 -0.92376,-0.59804 -0.9283,-1.81073 -0.005,-1.36062 -0.65724,-2.00088 -1.78562,-1.75305 -0.63466,0.1394 -0.92669,0.0565 -1.41406,-0.40134 -0.86087,-0.80875 -0.78623,-1.25048 0.21129,-1.25048 h 0.8255 l 0.003,-3.2385 c 0.004,-4.08869 0.35341,-4.92794 3.00134,-7.21266 2.59629,-2.24017 3.56144,-2.62941 6.52035,-2.62965 2.09523,-1.6e-4 2.60712,0.0908 3.88711,0.69049 1.93303,0.9057 3.77089,2.36402 4.57135,3.62732 0.75974,1.19902 1.65057,3.74827 1.87047,5.3526 0.34958,2.55043 -1.49247,6.52229 -3.86504,8.33389 -2.27442,1.73665 -6.14266,2.51651 -8.36889,1.68721 z M 93.561722,136.36624 c -5.911184,-0.6682 -11.354476,-5.08541 -12.939255,-10.50018 -0.55766,-1.90536 -0.553121,-5.15636 0.0094,-6.731 0.938972,-2.62844 2.932117,-4.59496 5.563415,-5.4891 1.95895,-0.66567 5.484714,-0.39169 7.565139,0.58788 3.202002,1.50765 5.426839,3.8769 7.074209,7.53337 1.40214,3.11217 1.7175,7.33366 0.74252,9.93953 -1.39035,3.71604 -3.827649,5.13288 -8.015423,4.6595 z"
         id="path100"
         inkscape:connector-curvature="0" />
      <path
         style="fill:#f50800;stroke-width:0.25400001"
         d="m 119.38472,166.22388 c -2.87177,-0.84862 -3.7502,-1.42529 -4.36435,-2.86509 -0.27466,-0.6439 -0.81992,-1.51363 -1.21169,-1.93273 -1.27126,-1.35995 -1.68816,-5.01079 -0.88663,-7.7644 0.32816,-1.12741 0.70943,-1.67686 2.08569,-3.00573 2.0269,-1.95711 3.73202,-2.79591 6.07496,-2.98843 5.66131,-0.4652 10.39072,4.18612 10.32047,10.15007 -0.0363,3.07925 -2.10057,6.35272 -4.9127,7.79031 -0.77466,0.39601 -4.17957,1.30343 -4.74914,1.26566 -0.11212,-0.007 -1.1726,-0.29978 -2.35661,-0.64966 z M 91.361884,134.0968 c -1.496296,-0.35213 -3.46598,-1.37601 -5.043716,-2.62183 -4.557154,-3.59842 -5.688767,-10.29248 -2.344341,-13.86794 2.604841,-2.78479 6.850776,-3.22397 10.499003,-1.08596 3.635766,2.1307 6.04251,6.73524 5.80174,11.09979 -0.283407,5.13725 -3.786199,7.68237 -8.912686,6.47594 z"
         id="path98"
         inkscape:connector-curvature="0" />
      <path
         style="fill:#d00000;stroke-width:0.25400001"
         d="m 119.95014,165.49366 c -1.90485,-0.53445 -3.17665,-1.24138 -4.02472,-2.23711 -0.67302,-0.79021 -0.98968,-1.267 -2.13495,-3.21458 -0.26693,-0.45392 -0.38042,-1.37037 -0.37907,-3.06091 0.002,-2.923 0.50738,-4.16374 2.42492,-5.95737 1.9065,-1.78331 3.47957,-2.41913 5.99256,-2.42215 1.89269,-0.002 2.22643,0.0783 3.90823,0.94342 1.36966,0.70456 2.08261,1.27161 2.79436,2.2225 3.39212,4.53189 2.14887,10.73834 -2.61914,13.07506 -1.94426,0.95285 -4.06241,1.18418 -5.96219,0.65114 z M 90.570844,129.91088 c -3.433376,-1.25785 -5.546072,-4.66141 -4.743529,-7.64183 0.985251,-3.65894 5.439692,-4.51415 8.68248,-1.66694 2.430897,2.13435 2.991208,6.38177 1.121951,8.50491 -1.091522,1.23977 -3.030423,1.54774 -5.060902,0.80386 z"
         id="path96"
         inkscape:connector-curvature="0" />
      <path
         style="fill:#af0000;stroke-width:0.25400001"
         d="m 120.01347,164.75201 c -2.46616,-0.60946 -3.88253,-1.77619 -5.11682,-4.21495 -1.06364,-2.10159 -1.13779,-4.50704 -0.20313,-6.58974 2.72944,-6.082 11.49442,-6.14412 14.26102,-0.10107 1.22428,2.67417 1.03464,5.45027 -0.53533,7.83666 -1.05561,1.60455 -2.52847,2.63291 -4.40264,3.07393 -1.74322,0.4102 -2.32651,0.4095 -4.0031,-0.005 z"
         id="path94"
         inkscape:connector-curvature="0" />
      <path
         style="fill:#8f0000;stroke-width:0.25400001"
         d="m 120.14047,164.10954 c -3.52823,-1.07713 -5.53595,-3.98992 -5.27397,-7.65145 0.272,-3.80157 3.1217,-6.37728 7.04194,-6.36489 4.09484,0.013 7.12203,3.15113 7.12203,7.3832 0,2.91183 -2.22047,5.8267 -5.03387,6.6081 -1.07063,0.29736 -2.92468,0.3094 -3.85613,0.0251 z"
         id="path92"
         inkscape:connector-curvature="0" />
      <path
         style="fill:#6f0000;stroke-width:0.25400001"
         d="m 119.85543,163.20338 c -1.41137,-0.45292 -3.12678,-2.04064 -3.79512,-3.51263 -1.35292,-2.97974 -0.0566,-6.64472 2.87481,-8.12789 4.12456,-2.08684 8.84733,0.55019 9.26662,5.17416 0.24235,2.67271 -1.05473,4.99712 -3.46696,6.21288 -1.18557,0.59752 -3.44196,0.71474 -4.87935,0.25348 z"
         id="path90"
         inkscape:connector-curvature="0" />
      <path
         style="fill:#4f0000;stroke-width:0.25400001"
         d="m 120.63674,162.47499 c -3.10144,-0.83021 -4.8226,-3.84183 -3.93688,-6.88859 1.02702,-3.53281 5.42733,-5.02645 8.34414,-2.83233 1.25289,0.94247 2.46361,3.13902 2.45999,4.46304 -0.006,2.15974 -2.14413,4.92624 -4.05487,5.24629 -0.49261,0.0825 -1.0671,0.18842 -1.27665,0.23536 -0.20955,0.0469 -0.90063,-0.0538 -1.53573,-0.22377 z"
         id="path88"
         inkscape:connector-curvature="0" />
      <path
         style="fill:#2f0000;stroke-width:0.25400001"
         d="m 120.00088,161.19579 c -1.61406,-0.70304 -2.84553,-2.93858 -2.56637,-4.65883 0.33188,-2.04513 2.38204,-3.86274 4.35696,-3.86274 1.02425,0 2.64063,0.77686 3.47746,1.67131 0.9427,1.00764 1.36647,2.71553 1.00324,4.04331 -0.30258,1.10606 -1.56228,2.57321 -2.52299,2.93847 -0.86366,0.32836 -2.85272,0.25857 -3.7483,-0.13152 z"
         id="path86"
         inkscape:connector-curvature="0" />
      <path
         style="fill:#100000;stroke-width:0.25400001"
         d="m 120.77547,160.24134 c -1.812,-0.99971 -2.51156,-2.68681 -1.81016,-4.36548 0.44232,-1.05863 1.72628,-1.94065 2.82616,-1.94145 1.71845,-0.001 3.429,1.64528 3.429,3.30065 0,2.14398 -2.69916,3.9695 -4.445,3.00628 z"
         id="path84"
         inkscape:connector-curvature="0" />
    </g>
    <flowRoot
       xml:space="preserve"
       id="flowRoot928"
       style="font-style:normal;font-weight:normal;font-size:40px;line-height:1.25;font-family:sans-serif;letter-spacing:0px;word-spacing:0px;opacity:0.6;fill:#333333;fill-opacity:1;stroke:none"
       transform="matrix(0.26458333,0,0,0.26458333,26.622669,-74.63835)"><flowRegion
         id="flowRegion930"
         style="fill:#333333"><rect
           id="rect932"
           width="408.57144"
           height="101.42857"
           x="148.57143"
           y="773.94824"
           style="fill:#333333" /></flowRegion><flowPara
         id="flowPara934"
         style="font-style:normal;font-variant:normal;font-weight:500;font-stretch:normal;font-size:85.33333588px;font-family:'Fira Sans';-inkscape-font-specification:'Fira Sans, Medium';font-variant-ligatures:normal;font-variant-caps:normal;font-variant-numeric:normal;font-feature-settings:normal;text-align:start;writing-mode:lr-tb;text-anchor:start;fill:#333333">CASTRO</flowPara></flowRoot>  </g>
</svg>
